<svg viewBox="142 143.22085889570553 426 320.24539877300623" fill="none" xmlns="http://www.w3.org/2000/svg" xmlns:xlink="http://www.w3.org/1999/xlink" overflow="visible" width="426px" height="320.24539877300623px"><g id="Master/Spot Illustration/Order Shipped"><path id="Fill 3" fill-rule="evenodd" clip-rule="evenodd" d="M364.399 269.298C361.739 268.324 360.589 266.745 360.098 265.655C358.663 262.47 360.309 258.478 362.74 257.038C363.375 256.662 364.014 256.476 364.644 256.476C365.884 256.476 367.088 257.196 368.153 258.608C368.929 259.635 369.152 260.825 368.836 262.246C368.364 264.364 366.75 266.768 364.399 269.298M432.812 264.008C428.493 255.504 426.17 254.158 385.774 267.173C375.443 270.502 369.205 270.628 365.441 269.625C367.742 267.081 369.326 264.644 369.812 262.463C370.19 260.763 369.9 259.263 368.951 258.006C367.054 255.491 364.54 254.809 362.231 256.177C359.431 257.837 357.492 262.306 359.187 266.066C359.718 267.246 360.932 268.957 363.671 270.061C353.304 280.671 330.914 293.164 325.654 296.027L345.316 238.495C344.931 238.934 344.457 239.301 343.893 239.567L324.652 295.867L295.089 244.38C294.495 244.235 293.975 243.992 293.53 243.674L323.324 295.561L251.925 250.123C251.693 250.152 251.455 250.173 251.203 250.173C250.728 250.173 250.293 250.113 249.889 250.013L324.5 297.495C324.509 297.501 324.521 297.499 324.53 297.504C324.605 297.545 324.685 297.573 324.769 297.573C324.842 297.573 324.913 297.552 324.98 297.521C324.987 297.518 324.995 297.519 325.003 297.515C326.391 296.781 353.126 282.563 364.7 270.423C368.644 271.624 375.201 271.631 386.081 268.125C427.074 254.918 428.1 256.94 431.92 264.462C432.045 264.707 432.345 264.804 432.592 264.681C432.838 264.556 432.937 264.255 432.812 264.008" fill="black"/><g id="Background" transform="translate(66 155.775) scale(1 1)"><g id="Background/Night City"><g id="City"><g id="Group 92"><path id="Path" fill-rule="evenodd" clip-rule="evenodd" d="M84.4325 122.062C84.4325 121.528 83.9995 121.096 83.4665 121.096C82.9325 121.096 82.4995 121.528 82.4995 122.062C82.4995 122.596 82.9325 123.029 83.4665 123.029C83.9995 123.029 84.4325 122.596 84.4325 122.062" fill="black"/><path id="Path_2" fill-rule="evenodd" clip-rule="evenodd" d="M365.14 152.505C365.674 152.505 366.107 152.072 366.107 151.539C366.107 151.005 365.674 150.572 365.14 150.572C364.606 150.572 364.174 151.005 364.174 151.539C364.174 152.072 364.606 152.505 365.14 152.505" fill="black"/><path id="Path_3" fill-rule="evenodd" clip-rule="evenodd" d="M188.325 130.076C188.325 130.609 188.757 131.042 189.291 131.042C189.825 131.042 190.258 130.609 190.258 130.076C190.258 129.542 189.825 129.109 189.291 129.109C188.757 129.109 188.325 129.542 188.325 130.076" fill="black"/><path id="Path_4" fill-rule="evenodd" clip-rule="evenodd" d="M99.1706 18.3723C99.7046 18.3723 100.138 17.9393 100.138 17.4053C100.138 16.8723 99.7046 16.4393 99.1706 16.4393C98.6376 16.4393 98.2046 16.8723 98.2046 17.4053C98.2046 17.9393 98.6376 18.3723 99.1706 18.3723" fill="black"/><path id="Path_5" fill-rule="evenodd" clip-rule="evenodd" d="M127.439 160.185C127.439 160.718 127.871 161.151 128.405 161.151C128.939 161.151 129.371 160.718 129.371 160.185C129.371 159.651 128.939 159.218 128.405 159.218C127.871 159.218 127.439 159.651 127.439 160.185" fill="black"/><path id="Path_6" fill-rule="evenodd" clip-rule="evenodd" d="M357.601 14.9333C358.135 14.9333 358.568 14.5003 358.568 13.9663C358.568 13.4333 358.135 13.0003 357.601 13.0003C357.068 13.0003 356.635 13.4333 356.635 13.9663C356.635 14.5003 357.068 14.9333 357.601 14.9333" fill="black"/><path id="Path_7" fill-rule="evenodd" clip-rule="evenodd" d="M162.715 65.5463C162.715 66.0803 163.147 66.5123 163.682 66.5123C164.215 66.5123 164.648 66.0803 164.648 65.5463C164.648 65.0123 164.215 64.5803 163.682 64.5803C163.147 64.5803 162.715 65.0123 162.715 65.5463" fill="black"/><path id="Path_8" fill-rule="evenodd" clip-rule="evenodd" d="M472.136 21.5523C472.67 21.5523 473.102 21.1203 473.102 20.5863C473.102 20.0523 472.67 19.6203 472.136 19.6203C471.602 19.6203 471.17 20.0523 471.17 20.5863C471.17 21.1203 471.602 21.5523 472.136 21.5523" fill="black"/><path id="Path_9" fill-rule="evenodd" clip-rule="evenodd" d="M456.512 88.2373C457.046 88.2373 457.478 87.8043 457.478 87.2703C457.478 86.7363 457.046 86.3043 456.512 86.3043C455.978 86.3043 455.546 86.7363 455.546 87.2703C455.546 87.8043 455.978 88.2373 456.512 88.2373" fill="black"/><path id="Exclude" fill-rule="evenodd" clip-rule="evenodd" d="M398.258 19.4993C397.031 22.2163 396.41 25.1123 396.41 28.1243C396.41 39.7323 405.854 49.1773 417.463 49.1773C418.615 49.1773 419.774 49.0803 420.923 48.8893C417.335 55.0823 410.781 58.8863 403.576 58.8863C392.518 58.8863 383.523 49.8913 383.523 38.8333C383.523 29.8313 389.66 21.8633 398.258 19.4993M403.576 59.8863C411.508 59.8863 418.688 55.4953 422.314 48.4263C422.403 48.2543 422.384 48.0473 422.266 47.8943C422.147 47.7403 421.951 47.6673 421.763 47.7103C420.343 48.0203 418.896 48.1773 417.463 48.1773C406.406 48.1773 397.41 39.1813 397.41 28.1243C397.41 24.9133 398.152 21.8383 399.614 18.9873C399.703 18.8153 399.683 18.6073 399.565 18.4543C399.447 18.3003 399.249 18.2283 399.062 18.2703C389.479 20.3653 382.523 29.0133 382.523 38.8333C382.523 50.4423 391.967 59.8863 403.576 59.8863" fill="black"/><path id="Path_10" fill-rule="evenodd" clip-rule="evenodd" d="M495.654 177.857H462.09V106.599C462.09 106.323 461.867 106.099 461.59 106.099H397.08C396.804 106.099 396.58 106.323 396.58 106.599V172.784H323.35C323.073 172.784 322.85 173.007 322.85 173.284V199.602H212.455V146.465C212.455 146.188 212.232 145.965 211.955 145.965H145.56C145.284 145.965 145.06 146.188 145.06 146.465V189.668C144.97 189.542 144.829 189.455 144.662 189.455H84.4326C84.1566 189.455 83.9326 189.678 83.9326 189.955C83.9326 190.231 84.1566 190.455 84.4326 190.455H144.662C144.829 190.455 144.97 190.367 145.06 190.241V295.781C145.06 296.057 145.284 296.281 145.56 296.281C145.837 296.281 146.06 296.057 146.06 295.781V146.965H211.455V200.102C211.455 200.378 211.679 200.602 211.955 200.602H323.35C323.626 200.602 323.85 200.378 323.85 200.102V173.784H396.58V215.68C396.58 215.957 396.804 216.18 397.08 216.18C397.357 216.18 397.58 215.957 397.58 215.68V107.099H461.09V222.089C461.09 222.365 461.314 222.589 461.59 222.589C461.867 222.589 462.09 222.365 462.09 222.089V178.857H495.154V267.028C495.154 267.305 495.377 267.528 495.654 267.528C495.93 267.528 496.154 267.305 496.154 267.028V178.357C496.154 178.081 495.93 177.857 495.654 177.857" fill="black"/><path id="Path_11" fill-rule="evenodd" clip-rule="evenodd" d="M83.0405 82.4713C83.0145 81.9383 82.9995 81.4013 82.9995 80.8613C82.9995 63.4063 97.2015 49.2053 114.657 49.2053C117.04 49.2053 119.443 49.4803 121.8 50.0243C122.055 50.0823 122.315 49.9343 122.391 49.6813C127.846 31.6013 144.853 18.9743 163.751 18.9743C175.35 18.9743 186.238 23.5093 194.412 31.7443C194.594 31.9283 194.888 31.9413 195.087 31.7763C199.035 28.4853 204.041 26.6723 209.185 26.6723C220.893 26.6723 230.557 35.8233 231.183 47.5043C231.192 47.6503 231.264 47.7863 231.38 47.8753C231.497 47.9643 231.645 47.9983 231.79 47.9653C233.87 47.5103 235.994 47.2793 238.101 47.2793C254.322 47.2793 267.517 60.4753 267.517 76.6953C267.517 78.5973 267.33 80.5173 266.96 82.4003C266.907 82.6713 267.083 82.9343 267.354 82.9873C267.387 82.9943 267.419 82.9973 267.451 82.9973C267.685 82.9973 267.894 82.8323 267.941 82.5933C268.324 80.6463 268.517 78.6623 268.517 76.6953C268.517 59.9243 254.873 46.2793 238.101 46.2793C236.114 46.2793 234.113 46.4783 232.144 46.8703C231.205 34.9363 221.231 25.6723 209.185 25.6723C203.96 25.6723 198.871 27.4613 194.8 30.7193C186.475 22.4963 175.467 17.9743 163.751 17.9743C144.571 17.9743 127.293 30.6863 121.57 48.9483C119.286 48.4553 116.962 48.2053 114.657 48.2053C96.6495 48.2053 81.9995 62.8543 81.9995 80.8613C81.9995 81.4183 82.0145 81.9723 82.0415 82.5223C82.0565 82.7983 82.2975 83.0183 82.5665 82.9963C82.8425 82.9823 83.0545 82.7473 83.0405 82.4713" fill="black"/></g></g></g></g><path id="Baloon" fill-rule="evenodd" clip-rule="evenodd" d="M402.937 223.193C392.393 203.462 383.409 187.901 373.982 176.59L374.499 175.98L381.445 179.604L379.029 174.048L378.063 167.041L370.847 173.013C355.728 156.594 338.942 150.87 312.526 156.267C263.7 166.242 226.899 188.258 226.899 231.397C226.899 241.989 240.366 250.576 256.978 250.576C273.589 250.576 287.056 241.989 287.056 231.397C287.056 241.989 300.522 250.576 317.134 250.576C333.746 250.576 347.212 241.989 347.212 231.397C347.212 241.989 360.678 250.576 377.29 250.576C393.902 250.576 407.929 232.535 402.937 223.193" fill="#4B69FD"/><path id="Fill 8" fill-rule="evenodd" clip-rule="evenodd" d="M349.433 189.423L344.944 184.314C344.887 184.25 344.815 184.209 344.738 184.18C344.714 184.172 344.692 184.171 344.668 184.166C344.635 184.158 344.603 184.144 344.568 184.144C344.528 184.144 344.487 184.149 344.447 184.159L333.388 186.924C333.299 185.204 333.075 180.156 333.264 176.432C335.388 176.257 338.646 175.513 341.805 174.791C345.054 174.048 348.41 173.282 350.186 173.229L361.256 180.392L349.433 189.423ZM353.664 168.857C351.822 168.87 348.467 169.637 344.915 170.449C341.344 171.265 335.37 172.63 334.753 171.94C334.239 171.352 333.778 171.424 333.55 171.517C331.787 172.24 332.076 181.74 332.414 187.444C332.419 187.524 332.422 187.58 332.422 187.586L332.458 188.187L332.984 188.056H344.769L349.045 190.496L349.298 190.784L349.669 190.501V190.501L362.428 180.756C362.429 180.755 362.429 180.755 362.429 180.754L366.911 177.331L353.814 168.856L353.664 168.857ZM333.382 201.092C326.789 185.534 325.28 169.473 325.266 169.312C325.241 169.037 324.992 168.837 324.723 168.859C324.448 168.884 324.245 169.127 324.269 169.402C324.284 169.564 325.806 185.775 332.461 201.482C333.911 204.903 336.652 207.676 339.303 210.358C343.096 214.194 346.679 217.817 346.907 223.214C346.918 223.483 347.14 223.693 347.406 223.693C347.413 223.693 347.421 223.693 347.428 223.692C347.704 223.68 347.918 223.447 347.906 223.172C347.662 217.389 343.774 213.457 340.015 209.654C337.43 207.04 334.756 204.337 333.382 201.092V201.092ZM290.811 172.264C290.558 172.159 290.264 172.279 290.158 172.535C290.051 172.793 279.537 198.636 285.948 223.318C286.007 223.544 286.209 223.693 286.432 223.693C286.473 223.693 286.516 223.688 286.558 223.676C286.825 223.607 286.985 223.334 286.916 223.067C280.591 198.716 290.976 173.173 291.082 172.918C291.187 172.662 291.066 172.37 290.811 172.264V172.264ZM370.818 164.141C370.917 164.259 371.058 164.32 371.202 164.32C371.315 164.32 371.429 164.281 371.522 164.203C371.652 164.095 384.554 153.415 394.396 157.685C394.649 157.794 394.944 157.678 395.054 157.425C395.164 157.172 395.047 156.878 394.794 156.768C384.38 152.246 371.426 162.978 370.879 163.437C370.668 163.615 370.641 163.93 370.818 164.141V164.141ZM368.143 162.97C368.241 163.108 368.395 163.181 368.552 163.181C368.652 163.181 368.753 163.152 368.84 163.089C369.559 162.579 386.44 150.535 386.427 144.499C386.426 144.223 386.203 144 385.927 144H385.926C385.649 144.001 385.426 144.225 385.427 144.501C385.436 149.084 373.039 158.884 368.262 162.274C368.037 162.433 367.984 162.745 368.143 162.97V162.97ZM400.737 236.097C396.566 243.055 387.699 250.075 377.29 250.075C360.981 250.075 347.712 241.696 347.712 231.396C347.712 231.12 347.489 230.896 347.212 230.896C346.936 230.896 346.712 231.12 346.712 231.396C346.712 241.696 333.444 250.075 317.134 250.075C300.825 250.075 287.556 241.696 287.556 231.396C287.556 231.12 287.332 230.896 287.056 230.896C286.78 230.896 286.556 231.12 286.556 231.396C286.556 241.696 273.287 250.075 256.978 250.075C240.668 250.075 227.4 241.696 227.4 231.396C227.4 193.423 256.074 168.31 312.626 156.756C325.713 154.083 336.423 154.167 345.757 156.98L344.415 162.675C344.369 162.873 344.446 163.079 344.611 163.197C344.698 163.259 344.8 163.29 344.902 163.29C344.994 163.29 345.086 163.265 345.168 163.214L351.594 159.174C358.281 162.209 364.297 166.816 370.074 173.002L367.234 175.353C367.041 175.512 366.996 175.789 367.127 176.001L370.148 180.877C370.19 180.945 370.247 181.001 370.314 181.042C370.315 181.042 370.317 181.042 370.318 181.043C370.383 181.082 370.457 181.107 370.536 181.112C370.549 181.113 370.561 181.114 370.573 181.114C370.588 181.114 370.604 181.113 370.62 181.112L376.412 180.574C376.676 180.891 376.966 181.237 377.034 181.326C385.201 192.099 393.249 206.126 402.496 223.428C404.244 226.699 403.603 231.317 400.737 236.097V236.097ZM377.69 167.998L378.534 174.115C378.54 174.16 378.553 174.205 378.571 174.246L380.423 178.506L374.73 175.536C374.523 175.429 374.269 175.478 374.118 175.656L370.636 179.766L368.207 175.845L377.69 167.998ZM403.378 222.957C394.039 205.483 385.909 191.328 377.646 180.459L381.492 180.102C381.496 180.101 381.498 180.097 381.503 180.097C381.572 180.089 381.632 180.05 381.693 180.013C381.722 179.996 381.758 179.994 381.783 179.971C381.784 179.97 381.786 179.97 381.787 179.969C381.865 179.897 381.914 179.803 381.935 179.703C381.935 179.702 381.936 179.701 381.936 179.7C381.941 179.676 381.926 179.655 381.928 179.632C381.932 179.556 381.936 179.478 381.904 179.404L379.515 173.911L378.558 166.972C378.534 166.792 378.413 166.64 378.244 166.574C378.076 166.508 377.885 166.539 377.744 166.655L370.872 172.341C368.199 169.465 365.473 166.929 362.656 164.72C364.829 163.267 379.221 153.359 379.902 145.565C379.926 145.29 379.723 145.047 379.448 145.023C379.175 144.995 378.93 145.203 378.906 145.478C378.227 153.248 362.014 163.948 361.85 164.055C361.841 164.061 361.836 164.071 361.827 164.078C358.894 161.861 355.86 159.998 352.672 158.496L353.624 157.898C353.757 157.815 353.843 157.673 353.856 157.517C353.87 157.36 353.808 157.207 353.691 157.102L347.74 151.786C347.608 151.669 347.426 151.632 347.256 151.682C347.088 151.735 346.96 151.873 346.92 152.045L345.999 155.95C336.548 153.132 325.693 153.066 312.426 155.777C255.343 167.439 226.4 192.881 226.4 231.396C226.4 242.247 240.117 251.075 256.978 251.075C271.954 251.075 284.449 244.112 287.056 234.952C289.663 244.112 302.159 251.075 317.134 251.075C332.11 251.075 344.605 244.112 347.212 234.952C349.819 244.112 362.315 251.075 377.29 251.075C388.09 251.075 397.279 243.811 401.595 236.611C404.645 231.522 405.295 226.545 403.378 222.957V222.957Z" fill="black"/><path id="Fill 10" fill-rule="evenodd" clip-rule="evenodd" d="M475.006 380.285H474.999C474.723 380.289 474.502 380.516 474.506 380.792C474.988 414.971 450.006 421.793 449.755 421.858C449.487 421.927 449.326 422.199 449.394 422.466C449.452 422.692 449.655 422.842 449.878 422.842C449.919 422.842 449.961 422.837 450.003 422.827C450.262 422.76 476 415.77 475.506 380.778C475.502 380.504 475.279 380.285 475.006 380.285M485.154 372.928C485.086 372.661 484.812 372.499 484.545 372.57C484.278 372.639 484.117 372.912 484.187 373.179C490.799 398.683 472.423 417.453 472.236 417.639C472.041 417.835 472.041 418.151 472.236 418.347C472.334 418.444 472.462 418.493 472.59 418.493C472.718 418.493 472.846 418.444 472.943 418.347C473.134 418.156 491.913 398.997 485.154 372.928M240.4 461.768C233.745 458.69 230.325 455.18 225.6 448.941C225.433 448.721 225.12 448.677 224.9 448.844C224.679 449.011 224.636 449.324 224.803 449.544C229.528 455.784 233.173 459.527 239.98 462.676C240.087 462.725 240.202 462.734 240.308 462.708C240.451 462.674 240.577 462.577 240.644 462.432C240.76 462.181 240.651 461.885 240.4 461.768M258.61 458.507C258.425 458.564 240.757 463.253 220.501 427.855C220.364 427.616 220.06 427.533 219.819 427.669C219.579 427.806 219.495 428.112 219.632 428.351C239.416 462.923 256.57 460.035 258.697 459.518C258.795 459.494 258.861 459.475 258.895 459.466C259.159 459.387 259.308 459.109 259.23 458.845C259.153 458.58 258.885 458.433 258.61 458.507" fill="black"/><g id="Package Flying" transform="translate(189.449 240.517) scale(1 1)"><g id="Package Flying/Shopping Bags"><g id="Package"><path id="Bag 1" fill-rule="evenodd" clip-rule="evenodd" d="M148.686 97.3589C148.916 97.4149 149.154 97.4479 149.4 97.4569C149.154 97.4479 148.916 97.4149 148.686 97.3589V97.3589ZM146.183 88.1499L115.494 87.0149C115.602 87.0169 115.67 87.0159 115.67 87.0129L116.185 73.1039C116.509 64.3269 123.141 57.2849 131.487 56.5809C130.803 56.4759 130.113 56.3989 129.411 56.3719C134.199 56.5489 138.631 58.5799 141.891 62.0899C145.15 65.5999 146.848 70.1699 146.671 74.9569L145.976 93.7699L146.183 88.1499ZM108.455 95.3359C109.23 94.8529 109.809 94.0779 110.033 93.1589C109.809 94.0779 109.23 94.8529 108.455 95.3359V95.3359ZM136.293 50.4209C136.078 50.3529 135.859 50.2949 135.642 50.2329C135.859 50.2939 136.078 50.3539 136.293 50.4209V50.4209ZM138.492 51.2309C138.235 51.1219 137.975 51.0189 137.713 50.9189C137.975 51.0189 138.234 51.1219 138.492 51.2309V51.2309ZM140.631 52.2579C140.339 52.0999 140.046 51.9449 139.748 51.7989C140.046 51.9449 140.338 52.0999 140.631 52.2579V52.2579ZM142.706 53.5139C142.38 53.2949 142.055 53.0759 141.721 52.8729C142.056 53.0749 142.38 53.2949 142.706 53.5139V53.5139ZM144.745 55.0439C144.374 54.7339 144.002 54.4249 143.616 54.1389C144.002 54.4249 144.374 54.7349 144.745 55.0439V55.0439ZM134.043 49.8249C133.891 49.7919 133.735 49.7689 133.581 49.7389C133.735 49.7689 133.891 49.7919 134.043 49.8249V49.8249ZM153.783 75.2199L153.295 88.4129V88.4129L153.783 75.2199C154.03 68.5329 151.658 62.1499 147.105 57.2469C146.565 56.6659 145.999 56.1189 145.415 55.5969C145.999 56.1189 146.565 56.6659 147.105 57.2469C151.658 62.1499 154.03 68.5329 153.783 75.2199V75.2199ZM175.318 89.2269L174.794 89.2069L157.131 88.5539C157.137 88.5519 157.157 88.5499 157.157 88.5469L157.673 74.5949C157.812 70.7999 157.118 67.1249 155.663 63.9679C151.685 55.3369 143.317 49.7549 133.824 49.4049C133.369 49.3889 132.917 49.3839 132.467 49.3909C132.225 49.3959 131.99 49.4279 131.749 49.4389C131.063 49.3579 130.373 49.2869 129.674 49.2609C122.987 49.0139 116.604 51.3849 111.702 55.9389C106.798 60.4919 103.962 66.6829 103.715 73.3689L103.019 92.1819C102.969 93.5449 103.692 94.7569 104.795 95.3959C105.039 95.5359 105.301 95.6499 105.577 95.7299C105.853 95.8109 106.144 95.8589 106.444 95.8699C106.143 95.8589 105.853 95.8109 105.577 95.7299C105.301 95.6499 105.039 95.5359 104.795 95.3959C103.692 94.7569 102.969 93.5449 103.019 92.1819L103.227 86.5619L81.2048 85.7479L55.3838 180.345L194.085 185.471L175.318 89.2269Z" fill="#4B69FD"/><path id="Fill 14" fill-rule="evenodd" clip-rule="evenodd" d="M193.474 184.951C193.415 185.021 193.326 185.06 193.235 185.056L180.257 184.577C180.235 184.576 180.213 184.574 180.193 184.568C180.07 184.536 179.977 184.429 179.968 184.298L175.775 122.527C175.763 122.358 175.655 122.228 175.492 122.186C175.45 122.175 175.402 122.171 175.367 122.172C175.265 122.179 175.171 122.225 175.104 122.302C175.037 122.378 175.004 122.477 175.011 122.579L179.195 184.206C179.201 184.291 179.17 184.374 179.111 184.435C179.052 184.496 178.97 184.529 178.885 184.526L164.013 183.976C163.99 183.976 163.97 183.972 163.949 183.967C163.89 183.952 163.835 183.919 163.795 183.871C163.741 183.808 163.715 183.724 163.725 183.64L174.062 98.4287L175.066 90.1317L193.54 184.698C193.557 184.788 193.534 184.881 193.474 184.951V184.951ZM162.642 183.926L56.2576 179.995C56.2356 179.994 56.2146 179.991 56.1936 179.986C56.1276 179.969 56.0686 179.929 56.0266 179.872C55.9726 179.799 55.9546 179.704 55.9786 179.617L81.4316 86.3717C81.4686 86.2377 81.5926 86.1457 81.7316 86.1507L102.531 86.9197C102.553 86.9207 102.574 86.9237 102.595 86.9297C102.65 86.9437 102.7 86.9727 102.74 87.0147C102.794 87.0737 102.823 87.1507 102.82 87.2307L102.637 92.1677C102.582 93.6297 103.336 94.9937 104.604 95.7267C104.912 95.9047 105.246 96.0407 105.597 96.1307C105.869 96.2007 106.149 96.2417 106.43 96.2527C108.601 96.3317 110.433 94.6307 110.515 92.4597L110.696 87.5437C110.699 87.4637 110.733 87.3887 110.791 87.3347C110.85 87.2807 110.928 87.2517 111.007 87.2547L111.308 87.2667C112.811 87.3257 113.902 87.3657 114.692 87.3687L145.487 88.5077C145.509 88.5077 145.529 88.5117 145.55 88.5167C145.605 88.5307 145.656 88.5607 145.696 88.6027C145.749 88.6607 145.779 88.7387 145.775 88.8177L145.593 93.7547C145.554 94.8077 145.928 95.8117 146.643 96.5837C147.161 97.1397 147.818 97.5327 148.544 97.7187C148.817 97.7887 149.092 97.8277 149.386 97.8407C151.557 97.9197 153.389 96.2177 153.47 94.0477L153.648 89.2027C153.654 89.0377 153.793 88.9087 153.958 88.9137L154.258 88.9247C154.918 88.9477 155.558 88.9657 156.058 88.9717C156.405 88.9757 156.712 88.9667 157.07 88.9357L174.038 89.5617C174.06 89.5627 174.081 89.5657 174.101 89.5717C174.161 89.5867 174.215 89.6197 174.255 89.6677C174.31 89.7307 174.335 89.8147 174.325 89.8977L162.951 183.662C162.932 183.817 162.798 183.932 162.642 183.926V183.926ZM116.567 73.1177C116.879 64.6687 123.277 57.7277 131.526 56.9747C132.074 57.0617 132.622 57.1757 133.155 57.3127C136.398 58.1437 139.322 59.8857 141.61 62.3497C144.801 65.7857 146.461 70.2587 146.287 74.9427L145.826 87.4527C145.823 87.5337 145.789 87.6077 145.73 87.6617C145.672 87.7167 145.595 87.7447 145.516 87.7427L116.367 86.6647C116.344 86.6637 116.324 86.6607 116.303 86.6557C116.247 86.6417 116.197 86.6117 116.158 86.5697C116.103 86.5117 116.074 86.4337 116.078 86.3547L116.567 73.1177ZM115.802 73.0897L115.312 86.3257C115.306 86.4917 115.166 86.6197 115.001 86.6147L111.036 86.4677C111.015 86.4667 110.993 86.4637 110.972 86.4587C110.839 86.4247 110.742 86.3007 110.747 86.1567L111.21 73.6457C111.382 68.9617 113.369 64.6247 116.805 61.4337C118.776 59.6027 120.989 58.1127 123.584 57.3327C126.547 56.1067 130.659 56.6727 130.659 56.6727C126.627 57.0137 124.172 58.5857 124.172 58.5857C119.154 61.6577 116.025 67.0797 115.802 73.0897V73.0897ZM104.098 73.3837C104.34 66.8017 107.133 60.7057 111.961 56.2187C116.79 51.7357 123.097 49.4017 129.721 49.6447C131.483 49.7157 133.233 49.9707 134.922 50.4037C139.475 51.5717 143.591 54.0277 146.824 57.5067C151.308 62.3377 153.644 68.6237 153.4 75.2057L152.704 94.0177C152.64 95.7677 151.16 97.1387 149.404 97.0747C149.18 97.0657 148.955 97.0327 148.737 96.9767C148.151 96.8267 147.621 96.5107 147.204 96.0617C146.627 95.4397 146.327 94.6307 146.358 93.7837L147.054 74.9717C147.233 70.0807 145.499 65.4137 142.171 61.8287C139.771 59.2457 136.718 57.4217 133.339 56.5547C132.084 56.2327 130.766 56.0427 129.426 55.9897C124.535 55.8097 119.868 57.5437 116.284 60.8727C112.698 64.2027 110.624 68.7287 110.444 73.6177L109.749 92.4297C109.684 94.1807 108.206 95.5517 106.453 95.4877C106.226 95.4777 106.001 95.4457 105.784 95.3897C105.509 95.3187 105.241 95.2097 104.987 95.0637C103.965 94.4727 103.358 93.3737 103.403 92.1967L104.098 73.3837ZM145.091 53.0117L145.089 53.0307C149.554 55.5667 153.158 59.4487 155.314 64.1277C156.744 67.2267 157.427 70.8427 157.289 74.5807L156.799 87.8587C156.796 87.9387 156.762 88.0137 156.703 88.0677C156.645 88.1217 156.568 88.1507 156.489 88.1477L153.992 88.0547C153.97 88.0547 153.949 88.0517 153.928 88.0467C153.794 88.0127 153.698 87.8877 153.703 87.7447L154.165 75.2347C154.416 68.4457 152.008 61.9647 147.385 56.9867C146.53 56.0657 145.574 55.1977 144.54 54.3837C140.951 51.5997 134.732 49.6067 134.732 49.6067C140.567 50.0747 145.091 53.0117 145.091 53.0117V53.0117ZM194.461 185.398L175.694 89.1537C175.667 89.0157 175.565 88.9027 175.362 88.8507C175.352 88.8477 175.342 88.8467 175.332 88.8437L157.853 88.1977C157.831 88.1967 157.81 88.1937 157.789 88.1887C157.734 88.1747 157.683 88.1447 157.644 88.1017C157.59 88.0437 157.561 87.9667 157.564 87.8877L158.055 74.6097C158.197 70.7517 157.49 67.0157 156.009 63.8077C152.786 56.8107 146.688 51.7087 139.279 49.8077C137.532 49.3607 135.726 49.0967 133.917 49.0257C133.406 49.0137 132.943 49.0017 132.462 49.0087C132.31 49.0117 132.16 49.0217 131.981 49.0327L131.58 49.0427C130.98 48.9747 130.36 48.9047 129.688 48.8777C122.898 48.6287 116.418 51.0357 111.441 55.6577C106.462 60.2827 103.582 66.5677 103.332 73.3547L102.87 85.8657C102.868 85.9457 102.833 86.0207 102.775 86.0747C102.717 86.1287 102.639 86.1577 102.56 86.1547L81.2186 85.3657C81.0396 85.3587 80.8826 85.4747 80.8346 85.6477L55.0136 180.244C54.9826 180.357 55.0056 180.477 55.0736 180.571C55.1266 180.642 55.2026 180.694 55.2876 180.716L55.3696 180.727L194.071 185.854C194.112 185.856 194.153 185.85 194.167 185.854C194.173 185.856 194.174 185.859 194.169 185.864L194.327 185.738L194.373 185.708C194.373 185.708 194.425 185.594 194.442 185.56C194.445 185.524 194.451 185.474 194.461 185.398V185.398Z" fill="black"/><path id="Bag 2" fill-rule="evenodd" clip-rule="evenodd" d="M161.439 90.9244C161.675 90.9214 161.915 90.8944 162.155 90.8424C161.915 90.8944 161.675 90.9214 161.439 90.9244V90.9244ZM156.727 82.6254L126.717 89.1504C126.822 89.1254 126.888 89.1084 126.888 89.1054L123.931 75.5034C122.064 66.9214 126.739 58.4524 134.649 55.6964C133.961 55.7654 133.272 55.8614 132.586 56.0104C137.269 54.9924 142.066 55.8594 146.095 58.4494C150.124 61.0394 152.904 65.0434 153.922 69.7254L157.922 88.1214L156.727 82.6254ZM121.966 98.9594C122.597 98.2984 122.965 97.4034 122.954 96.4584C122.965 97.4034 122.597 98.2984 121.966 98.9594V98.9594ZM137.774 48.5364C137.549 48.5244 137.323 48.5214 137.096 48.5154C137.323 48.5214 137.548 48.5244 137.774 48.5364V48.5364ZM140.106 48.7744C139.829 48.7334 139.551 48.6984 139.274 48.6664C139.552 48.6974 139.829 48.7334 140.106 48.7744V48.7744ZM142.432 49.2384C142.11 49.1574 141.788 49.0804 141.463 49.0134C141.788 49.0804 142.11 49.1584 142.432 49.2384V49.2384ZM144.754 49.9394C144.384 49.8084 144.015 49.6764 143.641 49.5624C144.015 49.6754 144.384 49.8084 144.754 49.9394V49.9394ZM147.109 50.9154C146.673 50.7074 146.236 50.5004 145.791 50.3194C146.236 50.5004 146.673 50.7074 147.109 50.9154V50.9154ZM135.446 48.5184C135.291 48.5244 135.134 48.5404 134.978 48.5494C135.134 48.5404 135.291 48.5244 135.446 48.5184V48.5184ZM160.876 68.2134L163.681 81.1134V81.1134L160.876 68.2134C159.454 61.6744 155.571 56.0804 149.943 52.4624C149.275 52.0344 148.591 51.6454 147.896 51.2844C148.591 51.6444 149.275 52.0344 149.943 52.4624C155.571 56.0804 159.454 61.6744 160.876 68.2134V68.2134ZM185.215 76.4314L184.704 76.5424L167.432 80.2984C167.437 80.2944 167.456 80.2874 167.456 80.2844L164.489 66.6424C163.682 62.9304 162.096 59.5434 159.902 56.8464C153.904 49.4744 144.413 46.1464 135.13 48.1654C134.686 48.2624 134.246 48.3704 133.813 48.4894C133.579 48.5534 133.359 48.6434 133.129 48.7144C132.443 48.8054 131.758 48.9084 131.075 49.0564C124.536 50.4784 118.942 54.3614 115.324 59.9904C111.706 65.6194 110.496 72.3204 111.918 78.8584L115.918 97.2544C116.208 98.5874 117.209 99.5814 118.437 99.9254C118.708 100.001 118.989 100.046 119.276 100.055C119.564 100.065 119.857 100.039 120.151 99.9754C119.856 100.039 119.564 100.065 119.276 100.055C118.989 100.046 118.708 100.001 118.437 99.9254C117.209 99.5814 116.208 98.5874 115.918 97.2544L114.723 91.7584L93.1888 96.4414L91.6758 194.487L227.303 164.996L185.215 76.4314Z" fill="#409B81"/><path id="Fill 18" fill-rule="evenodd" clip-rule="evenodd" d="M226.582 164.645C226.542 164.728 226.466 164.787 226.376 164.807L213.686 167.566C213.665 167.571 213.643 167.573 213.622 167.573C213.495 167.573 213.378 167.492 213.337 167.367L193.93 108.574C193.877 108.414 193.74 108.314 193.571 108.314C193.528 108.314 193.481 108.322 193.447 108.332C193.35 108.364 193.27 108.432 193.225 108.523C193.179 108.614 193.171 108.718 193.203 108.815L212.565 167.47C212.592 167.551 212.583 167.64 212.541 167.713C212.499 167.787 212.428 167.839 212.345 167.857L197.802 171.02C197.78 171.024 197.759 171.026 197.738 171.026C197.677 171.026 197.616 171.008 197.565 170.972C197.497 170.924 197.451 170.849 197.44 170.766L186.285 85.6566L185.197 77.3706L226.583 164.383C226.623 164.466 226.623 164.562 226.582 164.645V164.645ZM196.462 171.311L92.436 193.931C92.415 193.936 92.393 193.937 92.372 193.937C92.303 193.937 92.236 193.914 92.182 193.87C92.111 193.812 92.071 193.725 92.072 193.633L93.563 96.9886C93.565 96.8496 93.664 96.7296 93.799 96.7006L114.137 92.2786C114.159 92.2736 114.18 92.2716 114.201 92.2716C114.258 92.2716 114.314 92.2876 114.363 92.3186C114.43 92.3616 114.478 92.4296 114.494 92.5076L115.543 97.3356C115.854 98.7656 116.923 99.8986 118.333 100.294C118.676 100.391 119.033 100.439 119.395 100.439C119.676 100.439 119.957 100.409 120.232 100.35C122.355 99.8876 123.707 97.7846 123.247 95.6616L122.201 90.8546C122.184 90.7766 122.199 90.6956 122.242 90.6276C122.285 90.5616 122.353 90.5146 122.431 90.4976L122.725 90.4336C124.196 90.1176 125.263 89.8856 126.028 89.6926L156.141 83.1446C156.162 83.1406 156.183 83.1386 156.205 83.1386C156.262 83.1386 156.318 83.1546 156.367 83.1856C156.434 83.2286 156.481 83.2966 156.498 83.3736L157.547 88.2016C157.771 89.2306 158.382 90.1116 159.268 90.6806C159.907 91.0906 160.641 91.3086 161.39 91.3086C161.672 91.3086 161.949 91.2776 162.236 91.2166C164.359 90.7546 165.711 88.6506 165.25 86.5286L164.219 81.7916C164.184 81.6296 164.286 81.4706 164.448 81.4346L164.74 81.3706C165.386 81.2276 166.011 81.0866 166.497 80.9686C166.833 80.8866 167.128 80.8016 167.467 80.6826L184.059 77.0746C184.081 77.0696 184.102 77.0676 184.123 77.0676C184.185 77.0676 184.245 77.0856 184.296 77.1226C184.364 77.1696 184.41 77.2456 184.42 77.3286L196.696 170.979C196.716 171.134 196.615 171.278 196.462 171.311V171.311ZM124.305 75.4216C122.508 67.1606 126.981 58.8476 134.784 56.0686C135.337 56.0176 135.896 55.9916 136.446 55.9916C139.794 55.9916 143.059 56.9526 145.888 58.7706C149.832 61.3066 152.552 65.2266 153.547 69.8066L156.207 82.0396C156.225 82.1176 156.21 82.1986 156.167 82.2656C156.124 82.3326 156.056 82.3796 155.978 82.3966L127.476 88.5946C127.454 88.5996 127.433 88.6016 127.412 88.6016C127.354 88.6016 127.298 88.5846 127.249 88.5536C127.183 88.5106 127.135 88.4426 127.119 88.3656L124.305 75.4216ZM123.556 75.5846L126.37 88.5276C126.405 88.6896 126.302 88.8496 126.14 88.8846L122.264 89.7276C122.242 89.7316 122.221 89.7346 122.199 89.7346C122.061 89.7346 121.937 89.6386 121.907 89.4986L119.247 77.2646C118.249 72.6846 119.097 67.9896 121.632 64.0456C123.087 61.7816 124.86 59.7886 127.18 58.3886C129.746 56.4646 133.87 55.9916 133.87 55.9916C130.049 57.3236 128.061 59.4566 128.061 59.4566C123.963 63.6786 122.279 69.7076 123.556 75.5846V75.5846ZM112.292 78.7776C110.892 72.3406 112.083 65.7426 115.645 60.1966C119.209 54.6546 124.738 50.8266 131.215 49.4176C132.94 49.0476 134.698 48.8606 136.441 48.8606C141.142 48.8606 145.739 50.2176 149.735 52.7846C155.279 56.3496 159.103 61.8576 160.501 68.2946L164.501 86.6896C164.874 88.4006 163.78 90.0966 162.064 90.4706C161.844 90.5176 161.619 90.5416 161.394 90.5416C160.789 90.5416 160.197 90.3676 159.681 90.0366C158.968 89.5766 158.476 88.8676 158.296 88.0406L154.296 69.6446C153.255 64.8626 150.416 60.7726 146.302 58.1266C143.335 56.2206 139.924 55.2116 136.436 55.2116C135.141 55.2116 133.817 55.3546 132.505 55.6366C127.723 56.6776 123.633 59.5166 120.989 63.6316C118.342 67.7476 117.457 72.6466 118.498 77.4266L122.498 95.8226C122.87 97.5346 121.779 99.2296 120.065 99.6026C119.842 99.6506 119.616 99.6746 119.392 99.6746C119.108 99.6746 118.821 99.6356 118.539 99.5576C117.403 99.2386 116.542 98.3246 116.292 97.1726L112.292 78.7776ZM146.94 48.8606L146.942 48.8786C151.898 50.2266 156.353 53.0916 159.603 57.0876C161.759 59.7356 163.318 63.0676 164.114 66.7236L166.937 79.7066C166.955 79.7846 166.94 79.8656 166.897 79.9326C166.854 79.9996 166.786 80.0466 166.708 80.0636L164.267 80.5946C164.246 80.5996 164.224 80.6016 164.203 80.6016C164.065 80.6016 163.94 80.5056 163.91 80.3656L161.25 68.1326C159.806 61.4936 155.864 55.8146 150.149 52.1406C149.093 51.4616 147.951 50.8576 146.747 50.3256C142.579 48.5206 136.06 48.1356 136.06 48.1356C141.828 47.1386 146.94 48.8606 146.94 48.8606V48.8606ZM227.649 164.833L185.561 76.2676C185.501 76.1406 185.375 76.0566 185.165 76.0566C185.155 76.0566 185.144 76.0566 185.134 76.0566L168.042 79.7726C168.021 79.7776 168 79.7796 167.978 79.7796C167.921 79.7796 167.865 79.7636 167.816 79.7326C167.749 79.6896 167.702 79.6216 167.686 79.5436L164.863 66.5616C164.042 62.7886 162.429 59.3456 160.197 56.6056C155.337 50.6286 148.163 47.2016 140.514 47.2016C138.71 47.2016 136.896 47.3946 135.126 47.7746C134.628 47.8896 134.176 47.9946 133.712 48.1206C133.565 48.1606 133.422 48.2076 133.252 48.2626L132.867 48.3716C132.269 48.4556 131.65 48.5416 130.993 48.6826C124.353 50.1276 118.675 54.0696 115.002 59.7826C111.328 65.4986 110.1 72.3026 111.543 78.9396L114.204 91.1726C114.221 91.2506 114.207 91.3316 114.164 91.3986C114.121 91.4656 114.053 91.5136 113.975 91.5296L93.107 96.0666C92.932 96.1046 92.809 96.2566 92.806 96.4356L91.293 194.481C91.291 194.599 91.343 194.709 91.432 194.783C91.501 194.839 91.588 194.87 91.676 194.87L91.757 194.861L227.384 165.372C227.424 165.363 227.463 165.348 227.478 165.348C227.484 165.348 227.486 165.35 227.482 165.356L227.604 165.195L227.641 165.155C227.641 165.155 227.663 165.031 227.671 164.994C227.665 164.959 227.658 164.909 227.649 164.833V164.833Z" fill="black"/><path id="Fill 20" fill-rule="evenodd" clip-rule="evenodd" d="M134.094 58.3409C133.931 58.3409 133.79 58.3019 133.676 58.2509C133.324 58.0939 132.254 57.6179 132.253 52.0279C132.251 47.4769 132.621 47.0859 133.185 47.0089C133.359 46.9849 133.891 46.9119 134.294 48.3549L133.39 48.6079C133.319 49.1899 133.252 50.2179 133.253 52.0279C133.254 55.9359 133.796 57.2099 134.082 57.3379C134.108 57.3519 134.217 57.3189 134.397 57.1559L135.066 57.8999C134.694 58.2349 134.364 58.3409 134.094 58.3409" fill="black"/></g></g></g></g></svg>