<svg viewBox="24.599999999999998 24.45 247.05000000000004 251.10000000000002" xmlns="http://www.w3.org/2000/svg" overflow="visible" xmlns:xlink="http://www.w3.org/1999/xlink" width="228.75000000000003px" height="232.50000000000003px"><rect id="Blush Background Color" fill="#ffffff" x="24.599999999999998" y="24.45" width="247.05000000000004" height="251.10000000000002"/><g id="Master/Spot Illustrations/Pitch Meeting" stroke="none" stroke-width="1" fill="none" fill-rule="evenodd"><g id="Background" transform="translate(27.000000, 11.000000)"><g id="Texture Backgrounds" opacity=".5" transform="scale(1 1)"><g id="Texture Backgrounds/Spots 2" stroke="none" stroke-width="1" fill="none" fill-rule="evenodd"><g id="Group-2" transform="translate(124.000000, 107.500000) scale(-1, 1) translate(-124.000000, -107.500000) translate(33.000000, 25.000000)"><path d="M180.502,74.4986667 C180.493,74.5046667 180.502,74.4986667 180.502,74.4986667 C180.499,74.4986667 180.496,74.5016667 180.502,74.4986667" id="Fill-2056" fill="#BCE378"/><path d="M130.096173,64.6540487 C121.668805,67.2380678 124.951223,54.3976902 130.885237,57.4814029 C134.514073,58.8443806 132.953053,63.1841327 130.096173,64.6540487" id="Fill-2084" fill="#FCFEA6"/><path d="M110.619303,81 C107.295529,78.288064 103.98826,82.6537313 103,77.9826658 C104.176009,73.1573741 121.032144,78.3216578 110.619303,81" id="Fill-2088" fill="#BFE050"/><path d="M89.7757556,118.974722 C88.9198937,119.200318 86.9780222,119.705738 88.689746,120.415062 C95.1218956,127.65364 77.4292888,125.510483 86.8006167,119.601617 C81.8860037,109.592988 97.5983811,106.99864 89.7757556,118.974722" id="Fill-2094" fill="#BCDF48"/><path d="M24.5362752,44.0136144 C27.7515834,44.1793292 28.0113453,52.6826958 24.1738168,51.9559465 C21.5475035,50.7480252 20.8860169,43.6482432 24.5362752,44.0136144" id="Fill-2096" fill="#BCDF48"/><path d="M155.166876,91.096519 C154.654945,87.7061588 155.279388,81.4846505 157.617769,81 C161.596955,81.7061423 160.464331,95.6228472 155.166876,91.096519" id="Fill-2098" fill="#B4D741"/><path d="M89,92.4222561 C86.7886377,92.5650137 84.7266394,96.5270855 81.7859155,94.346189 C78.0440578,87.142422 88.8719738,83.1188545 89,92.4222561" id="Fill-2100" fill="#F8FB9B"/><path d="M87,111.871959 C86.3815396,113.421732 86.4970261,115.198591 85.4272568,116.49538 C79.0739821,120.168619 82.7163642,102.25859 87,111.871959" id="Fill-2104" fill="#FCFEA6"/><path d="M113.48263,45.7375386 C115.652748,49.4275967 110.498455,54.2544026 107.231679,50.831043 C103.04118,47.676568 110.658735,40.7839417 113.48263,45.7375386" id="Fill-2108" fill="#FCFEA6"/><path d="M98.4529838,22.4437893 C102.439435,21.0476367 104.841282,23.1732956 106,25.6562637 C102.592908,28.0234372 96.2544885,27.4477724 98.4529838,22.4437893" id="Fill-2112" fill="#F8FB9B"/><path d="M80.9073129,88.6119343 C82.1386622,102.240153 70.5394204,90.142376 79.2972198,88.0676254 C71.9437121,86.2934973 79.6137043,79.5773179 80.9073129,88.6119343" id="Fill-2114" fill="#BFE050"/><path d="M130.926706,122.276244 C133.262274,124.57595 134.703098,132.368717 129.167467,129.290143 C126.83986,128.396496 128.287052,120.431559 130.926706,122.276244" id="Fill-2120" fill="#FCFEA6"/><path d="M62.6239391,68 C58.4116223,67.3308772 59.784743,58.0593723 63.1311131,60.3685018 C65.7974461,61.7220541 65.5952288,67.7201055 62.6239391,68" id="Fill-2128" fill="#BFE050"/><path d="M87.55307,30 C83.5174027,29.4084466 82.275481,21.1940302 87.2616693,22.0645275 C93.5522223,22.6176059 93.508281,29.235309 87.55307,30" id="Fill-2132" fill="#FCFEA6"/><path d="M67.5226068,72.9502571 C70.2792508,80.0699302 60.2068071,81.4183018 60,74.2262328 C61.5017013,71.002358 65.2900306,69.5453928 67.5226068,72.9502571" id="Fill-2134" fill="#FCFEA6"/><path d="M140.992922,117.265059 C141.194745,122.059317 137.021157,124.055934 136.076745,119.211761 C135.320292,114.070472 140.390532,111.548555 140.992922,117.265059" id="Fill-2136" fill="#BCDF48"/><path d="M88.4756023,56.0492612 C86.1272479,53.24757 86.5229192,48.1005921 90.0869812,49.1354103 C93.6193291,52.097521 91.7753801,59.6440118 88.4756023,56.0492612" id="Fill-2138" fill="#FCFEA6"/><path d="M122.01971,47.8179543 C126.376682,44.2535208 128.902582,46.3707527 130,50.3717454 C125.980222,50.3541551 121.672296,52.9159418 122.01971,47.8179543" id="Fill-2140" fill="#BCDF48"/><path d="M49.0253995,96.2280515 C48.503992,92.6490841 56.1738738,91.8439328 57,94.8380408 C56.6817383,97.7933649 50.061443,99.4858891 49.0253995,96.2280515" id="Fill-2142" fill="#FCFEA6"/><path d="M132.109639,51.4878829 C130.658331,48.788337 130.121797,43.7956049 133.727572,44.0064726 C137.566622,44.7379199 136.21529,54.2862731 132.109639,51.4878829" id="Fill-2144" fill="#F8FB9B"/><path d="M3.22262732,76 C-5.22061667,75.1547487 5.29228655,68.0552513 7.95453115,72.3934921 C8.41982039,73.901445 5.20669089,75.6901257 3.22262732,76" id="Fill-2146" fill="#BCDF48"/><path d="M56.5832382,83.9974951 C52.2331702,84.1775893 53.8942433,74.5817967 57.7447747,76.1795562 C60.4261779,78.2229336 58.2230544,82.2819816 56.5832382,83.9974951" id="Fill-2150" fill="#BFE050"/><path d="M33.376627,116.978333 C28.8470102,116.848314 29.0470192,112.80518 32.9460193,112 C38.3839125,112.205211 40.6969584,117.374657 33.376627,116.978333" id="Fill-2152" fill="#FCFEA6"/><path d="M99.9977388,73.3025709 C98.4944888,76.1458524 91.4027102,76.6215056 92.0404526,75.2902846 C91.6139106,71.6932523 100.159245,68.7937434 99.9977388,73.3025709" id="Fill-2154" fill="#FCFEA6"/><path d="M121.637593,92.1747783 C126.135241,90.7917059 125.689981,98.0103546 122.829574,100 C119.225912,99.5698064 119.335061,94.5558999 121.637593,92.1747783" id="Fill-2156" fill="#BCDF48"/><path d="M62.7145989,50.3249362 C64.3951408,48.3097714 69.2215473,48.6683756 70,50.8914038 C68.6697618,55.1422908 59.3901481,55.1089692 62.7145989,50.3249362" id="Fill-2158" fill="#BCDF48"/><path d="M86.8269811,39.2412317 C87.8417676,42.304296 84.1501226,44.2635669 82.0630803,42.0544662 C81.4551158,39.6803264 85.406885,36.0782355 86.8269811,39.2412317" id="Fill-2162" fill="#FCFEA6"/><path d="M28.9980952,148.408406 C29.1003468,150.836923 25.0560691,153.745805 24.0396582,150.676801 C23.566554,147.836991 27.4521128,145.337833 28.9980952,148.408406" id="Fill-2164" fill="#BFE050"/><path d="M57.2497458,85.0072106 C58.6108213,79.5447064 63.0224134,82.2973521 61.7828332,87.1180477 C60.8075873,92.2620246 55.8410573,89.8754475 57.2497458,85.0072106" id="Fill-2166" fill="#FCFEA6"/><path d="M150.082193,103 C152.810376,103.669004 152.257676,107.830524 150.712589,110.172992 C146.290989,114.062241 145.499905,102.96955 150.082193,103" id="Fill-2168" fill="#BFE050"/><path d="M84,17.4798381 C84.0852619,14.6187396 87.6540804,12.155707 89,15.9062339 C88.8157734,18.4081402 84.8678441,20.5586289 84,17.4798381" id="Fill-2170" fill="#BFE050"/><path d="M83.5912069,90 C80.4020432,88.781457 82.7898933,84.384106 84.0095633,82 C88.8367535,83.9560265 87.1697638,87.5396026 83.5912069,90" id="Fill-2172" fill="#BCDF48"/><path d="M105.854031,62 C101.397652,61.5526441 102.544489,50.6007097 106.644896,55.0695345 C108.945287,57.0199114 108.072146,61.3041131 105.854031,62" id="Fill-2174" fill="#FCFEA6"/><path d="M118.523709,36.815619 C119.714795,39.0323952 118.488331,41.5330701 116.865961,42.9998804 C111.409206,43.044831 114.760082,30.4018729 118.523709,36.815619" id="Fill-2176" fill="#F8FB9B"/><path d="M98,65.3026873 C99.476335,61.5755689 103.293045,63.2831854 105.929967,64.1740407 C106.772673,68.4784059 99.7664818,69.5553587 98,65.3026873" id="Fill-2178" fill="#FCFEA6"/><path d="M138,108.167654 C137.948371,111.128599 134.381261,112.170965 133.070192,109.322877 C132.347383,105.833695 137.432079,104.542102 138,108.167654" id="Fill-2180" fill="#FCFEA6"/><path d="M63.5108619,90.7780258 C67.5664531,87.2687513 68.142891,96.6945271 64.9442594,97.9740231 C61.5899725,98.4013 61.087086,93.45376 63.5108619,90.7780258" id="Fill-2182" fill="#FCFEA6"/><path d="M91.2918785,102.518507 C87.8939672,100.597122 91.9890914,96.1542125 94.5198943,98.8406957 C96.1932053,100.692955 93.0966182,104.301641 91.2918785,102.518507" id="Fill-2184" fill="#FCFEA6"/><path d="M85.2257367,41 C83.2049336,38.5070796 80.1902928,41.5248254 79.0710424,39.3346888 C77.8950012,33.2302297 91.8016288,36.5473951 85.2257367,41" id="Fill-2186" fill="#BFE050"/><path d="M76,115.789774 C75.8553465,118.221196 75.5553245,123.209395 72.7890501,121.731147 C68.5119506,118.947311 72.8444113,110.295422 76,115.789774" id="Fill-2188" fill="#BCDF48"/><path d="M138.392931,136 C134.22832,135.55516 136.086063,129.999534 139.505535,131.158715 C142.123728,132.16204 141.014526,135.896096 138.392931,136" id="Fill-2190" fill="#BFE050"/><path d="M98.2743191,57 C101.817813,58.4579707 99.3013694,63.8179274 96.1315032,61.3676615 C93.5468168,59.6190342 95.8755937,57.2765925 98.2743191,57" id="Fill-2192" fill="#BFE050"/><path d="M87.9739203,132.55162 C84.0625247,134.641823 82.1034521,128.789582 86.5328798,128.003314 C88.6860035,127.881223 90.0426739,131.164664 87.9739203,132.55162" id="Fill-2194" fill="#BCDF48"/><path d="M111.257111,125 C103.034644,112.362154 120.653126,117.05064 111.044987,123.059164 C110.257535,123.177945 111.80497,124.18198 111.257111,125" id="Fill-2196" fill="#FCFEA6"/><path d="M46,70.6112494 C46.634895,67.5994929 50.3021002,66.8370009 51,70.2308719 C50.9369952,73.4996873 46.552504,74.1788089 46,70.6112494" id="Fill-2198" fill="#BFE050"/><path d="M93.4973508,111 C86.797925,110.631299 90.8874666,103.9351 96.0566279,106.643204 C100.965524,108.378838 95.2348638,109.802123 93.4973508,111" id="Fill-2200" fill="#BCDF48"/><path d="M61.9902945,90 C60.171487,92.6776228 59.9463198,94.1560401 62,96.2270297 C56.2465898,102.512312 54.482133,90.0723139 61.9902945,90" id="Fill-2202" fill="#BFE050"/><path d="M110.50068,143.249144 C108.383445,145.078198 105.130953,143.343161 106.215678,140.440606 C107.364409,137.0013 112.622969,140.442315 110.50068,143.249144" id="Fill-2204" fill="#BCDF48"/><path d="M124.983084,130.744397 C124.538646,135.150668 117.940995,132.299366 120.651165,129.004914 C122.008065,126.737119 125.262446,128.741547 124.983084,130.744397" id="Fill-2206" fill="#BCDF48"/><path d="M144.898217,82.3917803 C147.902599,85.6965575 144.135985,88.8207809 141.080458,85.7352475 C140.506309,83.9764613 143.132874,80.911885 144.898217,82.3917803" id="Fill-2210" fill="#FCFEA6"/><path d="M105.426605,155.946044 C104.057949,158.92058 99.8740198,154.839492 101.28772,153.036509 C103.385748,150.314237 107.514238,153.545678 105.426605,155.946044" id="Fill-2212" fill="#BCDF48"/><path d="M94.7855135,44 C96.3545772,44.3110723 97.579548,46.2424555 96.7124339,47.7277404 C92.791495,51.9255076 89.4125025,44.4272972 94.7855135,44" id="Fill-2214" fill="#BFE050"/><path d="M133.756852,141.007719 C137.115703,141.410549 136.479707,146.027601 133.326832,145.999876 C129.863186,145.481252 130.48292,140.784287 133.756852,141.007719" id="Fill-2216" fill="#BCDF48"/><path d="M101.00517,131.226012 C100.768023,125.429956 108.786246,128.44713 104.967018,132.447931 C104.107982,133.447684 100.928885,133.118016 101.00517,131.226012" id="Fill-2218" fill="#FCFEA6"/><path d="M120.073012,162.864127 C119.366237,159.701404 124.002052,159.043739 124.874205,161.465063 C125.936108,164.967958 119.92156,166.612992 120.073012,162.864127" id="Fill-2220" fill="#BCDF48"/><path d="M94.9842099,149.272599 C95.2701857,151.694144 91.5925731,152.93818 90.3648807,151.161936 C88.5051271,148.028563 94.3266476,144.637402 94.9842099,149.272599" id="Fill-2222" fill="#BCDF48"/><path d="M150.637311,93.4618864 C153.472207,91.5636889 156.852275,96.0248676 153.788759,97.6528414 C151.115656,99.0967978 148.850553,95.7115406 150.637311,93.4618864" id="Fill-2224" fill="#FCFEA6"/><path d="M37.5367065,41 C39.044803,41.3870391 41.3224418,44.2282187 39.0189794,45.5559538 C35.4019581,47.741076 32.8729699,41.1596753 37.5367065,41" id="Fill-2226" fill="#BFE050"/><path d="M114,35.7055338 C112.423354,39.2138471 108.271519,38.6677805 109.110851,34.2811553 C111.528375,32.1067577 113.038555,32.7778274 114,35.7055338" id="Fill-2228" fill="#F8FB9B"/><path d="M126.236618,109.952399 C127.502708,110.711017 127.322118,114.983953 124.719274,113.791187 C119.652953,113.052373 122.5522,106.617833 126.236618,109.952399" id="Fill-2230" fill="#BCDF48"/><path d="M76,76.1139204 C75.7995564,79.2635319 72.3234425,80.2211061 71.0504498,77.0253464 C70.4280197,74.1279016 75.7661491,72.410531 76,76.1139204" id="Fill-2232" fill="#FCFEA6"/><path d="M102.87974,107.61931 C107.409024,105.007675 109.907699,105.415858 106.221397,109.865242 C101.720057,114.453151 96.7017493,103.363859 102.87974,107.61931" id="Fill-2234" fill="#BCDF48"/><path d="M62,135.55154 C61.5906959,141.335704 53.527224,135.361755 58.7598258,133.036463 C60.2347632,132.761189 61.9657411,134.087974 62,135.55154" id="Fill-2236" fill="#BFE050"/><path d="M50.9875102,84.2209614 C51.3048891,88.3168485 45.4630802,87.5491061 46.0401328,84.1037199 C46.6782851,80.9968212 50.4834378,81.5830285 50.9875102,84.2209614" id="Fill-2240" fill="#BCDF48"/><path d="M147.00645,147.055012 C146.837034,144.510499 150.045007,143.014567 151.930442,144.74528 C152.520665,147.82598 149.22343,151.238229 147.00645,147.055012" id="Fill-2242" fill="#BCDF48"/><path d="M136,86.4887023 C135.597012,91.3825522 128.939447,88.1914246 131.644754,84.8045429 C133.388834,82.7845642 135.088322,85.0306725 136,86.4887023" id="Fill-2244" fill="#F8FB9B"/><path d="M53.9188276,26.0188231 C54.5172434,28.4712198 51.6922896,31.1185982 49.2141654,29.5066389 C48.144924,26.3062527 51.2933458,23.3932961 53.9188276,26.0188231" id="Fill-2246" fill="#BFE050"/><path d="M98.0003029,124.682725 C97.9571153,121.617916 102.545804,120.865372 102.986678,124.08351 C103.288991,127.664702 98.3494031,128.04538 98.0003029,124.682725" id="Fill-2248" fill="#BCDF48"/><path d="M87.5152675,66.4120903 C90.3771221,63.9628264 93.0681197,64.7302409 91.573121,68.4768391 C90.7081575,71.8114569 85.3386206,69.0035278 87.5152675,66.4120903" id="Fill-2250" fill="#FCFEA6"/><path d="M113.649274,103 C112.015757,100.313289 109.141685,97.9104029 112.704759,95 C116.045803,95.132291 117.624692,102.475646 113.649274,103" id="Fill-2252" fill="#BCDF48"/><path d="M122,77.9269683 C123.772906,74.5272617 127.091463,76.1801058 126.99807,78.6321066 C124.892063,81.9923255 123.539424,81.7930064 122,77.9269683" id="Fill-2254" fill="#FCFEA6"/><path d="M73.499601,139 C77.177971,139.280241 76.4584121,143.487407 73.5389519,144 C70.0948132,143.565449 70.2259828,139.253636 73.499601,139" id="Fill-2256" fill="#BFE050"/><path d="M121.179268,52.7050045 C122.946675,54.017412 121.679586,56.9879596 119.093651,57 C114.744144,56.3033748 118.033591,49.904743 121.179268,52.7050045" id="Fill-2258" fill="#BFE050"/><path d="M22.0020324,114.807734 C21.8607147,109.684291 29.1450001,112.459175 26.3681989,116.099913 C25.1807631,118.048556 21.9488089,116.467759 22.0020324,114.807734" id="Fill-2260" fill="#BFE050"/><path d="M64.6347886,106 C67.9666268,106.109791 67.5152411,110.965798 64.9159483,111 C61.0179655,111.005395 61.1327246,106.178186 64.6347886,106" id="Fill-2262" fill="#BCDF48"/><path d="M12.7700819,79.0234062 C13.7129815,81.1564275 11.5733246,84.0861844 9.66279897,83.9980579 C5.44447697,81.5970601 10.2892008,78.7104672 12.7700819,79.0234062" id="Fill-2264" fill="#BFE050"/><path d="M70.2428006,22.0425655 C76.5241741,21.3207335 70.434857,30.0765723 68.0680445,25.8343163 C67.6669856,24.2148872 69.1224717,23.0476696 70.2428006,22.0425655" id="Fill-2266" fill="#BFE050"/><path d="M34.7855797,89.2430158 C36.3102837,93.0707864 29.1724396,92.7462332 30.0800963,89.2984671 C29.9367821,86.4998075 35.7031888,85.9991148 34.7855797,89.2430158" id="Fill-2268" fill="#BCDF48"/><path d="M71.9855234,87.3111554 C70.1096887,89.7782889 67.7613824,89.7177676 68.0195732,85.9583261 C68.6817358,81.476189 75.535207,85.8960247 71.9855234,87.3111554" id="Fill-2272" fill="#BCDF48"/><path d="M106.33578,66.8742038 C104.224536,62.4670985 112.847529,61.6069051 110.633222,65.3993602 C108.228403,64.9795604 107.627198,70.2278494 106.33578,66.8742038" id="Fill-2274" fill="#BCDF48"/><path d="M114,77.4473307 C114.05096,74.9221358 117.21414,72.2260494 118.642849,75.5384361 C120.39188,78.421776 115.212128,80.6070059 114,77.4473307" id="Fill-2276" fill="#B4D741"/><path d="M94.1886691,114 C90.717071,112.618955 91.5864357,109.887699 95.3100519,109 C97.3007995,111.476469 98.1975151,113.16261 94.1886691,114" id="Fill-2278" fill="#FCFEA6"/><path d="M111,51.8947593 C112.891749,50.8954152 113.432249,47.0824521 115.340888,50.2069391 C118.100815,52.9151792 111.320922,56.2539368 111,51.8947593" id="Fill-2280" fill="#BFE050"/><path d="M70.8674866,64.9985788 C66.4455721,64.7733504 67.5181555,59.2984218 71.4974798,60.07546 C73.3176818,61.2128638 73.8938465,65.0849164 70.8674866,64.9985788" id="Fill-2282" fill="#BFE050"/><path d="M43.0011076,117.192842 C43.0556171,109.753476 52.4171881,117.435387 45.3801845,119 C44.6733191,117.952286 42.9501148,118.640159 43.0011076,117.192842" id="Fill-2284" fill="#BFE050"/><path d="M67.8671984,72.8869123 C66.0964523,71.7355543 63.6023187,69.8259325 61.9092369,72.9943151 C54.9105738,73.2928949 69.5292144,61.6826522 67.8671984,72.8869123" id="Fill-2286" fill="#BFE050"/><path d="M65.0023069,119.80426 C64.9808675,114.459284 72.4106121,117.742894 69.1907962,121.476901 C68.042811,122.781375 64.9029058,121.428311 65.0023069,119.80426" id="Fill-2288" fill="#BCDF48"/><path d="M68.0785508,103.061464 C70.2185836,97.8523786 75.0972285,103.908359 71.9963186,105.995946 C69.7437709,106.088694 67.5542315,104.574319 68.0785508,103.061464" id="Fill-2290" fill="#BCDF48"/><path d="M75.7672286,76 C73.9729747,73.6762446 70.4854175,71.9906448 75.911988,71 C78.4452764,71.7534247 78.9881239,75.689275 75.7672286,76" id="Fill-2292" fill="#BFE050"/><path d="M99.7199786,123.346207 C98.6312698,125.88052 95.7921245,125.29039 95.0176441,123.008171 C94.6091472,118.821875 101.446386,119.070149 99.7199786,123.346207" id="Fill-2294" fill="#FCFEA6"/><path d="M97.0421134,65 C98.2234126,65.5249286 98.3625709,67.9096558 100,68.0557699 C97.6636871,73.393446 91.9674747,66.1743248 97.0421134,65" id="Fill-2296" fill="#BCDF48"/><path d="M43.2794153,132.944312 C39.5060853,133.228291 40.8451919,126.857363 44.1872842,128.181294 C47.0678765,128.496609 46.330233,133.584734 43.2794153,132.944312" id="Fill-2298" fill="#FCFEA6"/><path d="M5.90747524,90.0055957 C9.62418791,90.6099472 7.88575859,96.1519794 4.61185339,94.783463 C1.63725323,94.3958698 3.19937957,89.8182283 5.90747524,90.0055957" id="Fill-2300" fill="#BFE050"/><path d="M99.9719635,156.750299 C100.363695,159.981994 96.543837,161.341404 95.1699112,158.298462 C94.0692418,155.146844 98.62479,153.545296 99.9719635,156.750299" id="Fill-2302" fill="#BCDF48"/><path d="M86.8913464,161.805857 C87.794474,165.307765 82.7932084,166.122661 82.0193486,163.285537 C81.6507608,160.141754 86.6677481,158.52054 86.8913464,161.805857" id="Fill-2304" fill="#BFE050"/><path d="M171,105.447573 C171.614161,103.192567 173.454811,98.7182401 175.669457,102.407478 C177.288275,104.375298 172.514319,107.206377 171,105.447573" id="Fill-2306" fill="#FCFEA6"/><path d="M111,114.996833 C111,117.747161 106.785438,117.355328 106.018209,115.681134 C105.67306,111.445967 110.34089,110.411079 111,114.996833" id="Fill-2308" fill="#BFE050"/><path d="M34.9592409,119.677896 C35.3351066,121.892476 33.0259605,122.288514 31.5476754,121.831858 C26.7909063,119.522309 34.4718744,113.559512 34.9592409,119.677896" id="Fill-2310" fill="#BCDF48"/><path d="M92,58.4753216 C89.2409225,58.4426403 90.2167542,61.9068583 88.3030673,62 C84.6292508,58.8413522 89.6487574,54.767628 92,58.4753216" id="Fill-2312" fill="#BCDF48"/><path d="M109,26.085642 C112.777918,23.9333315 115.536008,24.9520671 113.049521,29.4030156 C110.624364,31.5608829 109.856865,27.2636709 109,26.085642" id="Fill-2314" fill="#FCFEA6"/><path d="M104.535016,93 C104.945732,94.8923108 106.308405,95.4128494 108,96.2104982 C106.722602,100.981081 100.03976,94.9168067 104.535016,93" id="Fill-2316" fill="#BFE050"/><path d="M69.9643762,132.714616 C65.6041601,130.86561 69.3966186,125.964719 72.7061802,128.932812 C73.6194414,130.323756 72.3202667,134.053424 69.9643762,132.714616" id="Fill-2318" fill="#BCDF48"/><path d="M147,130.864102 C147.084194,126.522458 151.779946,127.771253 152,130.306307 C151.948335,133.690542 147.650593,133.896593 147,130.864102" id="Fill-2320" fill="#BFE050"/><path d="M131.198141,121.903777 C128.75284,122.48748 128.674697,120.289901 128,118.699812 C129.585729,114.041164 136.113519,120.258794 131.198141,121.903777" id="Fill-2322" fill="#BCDF48"/><path d="M121.37202,47.1213665 C122.664011,49.9073833 122.004946,51.7621836 118.999013,50.6935744 C114.589066,49.5925253 118.431433,43.5377093 121.37202,47.1213665" id="Fill-2324" fill="#F8FB9B"/><path d="M92,89.3506424 C95.127645,87.3594615 95.3147051,85.241799 96.9851519,89.3614836 C97.2938011,92.855988 92.6958636,92.9065806 92,89.3506424" id="Fill-2326" fill="#BCDF48"/><path d="M140.777773,23.9992244 C139.034057,22.5455935 137.953383,20.3355878 140.547431,19.0001948 C144.691449,18.9636802 145.50303,24.0722537 140.777773,23.9992244" id="Fill-2328" fill="#FCFEA6"/><path d="M92.7714521,80.4649229 C90.4595949,73.5600375 93.8017363,77.5494805 96.7651496,76 C97.8403068,78.052071 95.000743,82.5399337 92.7714521,80.4649229" id="Fill-2330" fill="#BCDF48"/><path d="M123.729404,88.7552907 C120.285902,89.9716451 119.604041,86.3658942 120.185333,84.2652465 C122.510501,82.8720334 127.277497,87.3530542 123.729404,88.7552907" id="Fill-2332" fill="#F8FB9B"/><path d="M56.9465134,19.1098494 C57.5813918,23.3097112 52.36194,22.6007878 52,19.1098494 C52.6546565,16.1057174 55.7993812,16.4944221 56.9465134,19.1098494" id="Fill-2334" fill="#FCFEA6"/><path d="M122.793837,88.9866744 C124.911462,88.1085503 123.773047,86.6672155 122,85.8723618 C122.388195,80.1539569 132.518337,89.3969704 122.793837,88.9866744" id="Fill-2336" fill="#BCDF48"/><path d="M27.0606472,95.0201475 C28.128725,96.1963612 29.2094428,96.4401866 28.9650699,98.3225187 C26.8099544,103.657418 20.1444748,94.5168919 27.0606472,95.0201475" id="Fill-2340" fill="#BFE050"/><path d="M84,71.7135228 C83.5545381,73.2463274 80.7254958,74.2344721 81.2697496,75.9864897 C76.322967,76.3642105 80.49558,68.6715212 84,71.7135228" id="Fill-2344" fill="#BFE050"/><path d="M109.345022,36 C108.631716,37.7255026 112.666138,39.9535948 110.182181,40.5953377 C105.393169,42.6695425 104.200503,36.0998631 109.345022,36" id="Fill-2346" fill="#BCDF48"/><path d="M143.97332,152.44464 C143.738961,156.25757 138.104145,155.561909 139.123099,151.955916 C139.310587,149.098419 144.41147,149.466063 143.97332,152.44464" id="Fill-2348" fill="#BFE050"/><path d="M45.2364498,144 C40.0010628,143.548664 45.2546979,136.824002 47.8550556,139.723057 C48.5649077,141.686009 46.5028696,143.801794 45.2364498,144" id="Fill-2350" fill="#BFE050"/><path d="M103.794215,139.028807 C105.435241,139.254778 106.602235,140.800676 105.667497,142.673915 C102.998451,147.258811 97.7498342,138.435368 103.794215,139.028807" id="Fill-2352" fill="#FCFEA6"/><path d="M120,30.9786059 C123.890643,27.022236 127.949655,36.4490608 121.962654,34.8055106 C120.444032,33.9233915 121.767874,30.434413 120,30.9786059" id="Fill-2354" fill="#BFE050"/><path d="M114.180932,94.9853 C111.46662,95.2019986 111.581192,92.9824162 111,90.9984673 C114.062194,87.6848729 118.551329,93.5609804 114.180932,94.9853" id="Fill-2356" fill="#FCFEA6"/><path d="M155.00501,108.624149 C154.772815,102.811872 162.706868,108.106559 159.022418,110.632991 C157.351054,111.672413 155.47159,110.346619 155.00501,108.624149" id="Fill-2358" fill="#BCDF48"/><path d="M99.2463066,120.95185 C96.7539367,119.921029 98.3324376,116.19361 101.05789,117.1578 C104.722597,118.118071 102.677931,124.459779 99.2463066,120.95185" id="Fill-2360" fill="#BFE050"/><path d="M8.00146737,108.692038 C7.94258728,105.142933 13.9461755,104.94995 12.8710687,109.031421 C12.9779252,112.349835 7.90115315,110.943502 8.00146737,108.692038" id="Fill-2362" fill="#BFE050"/><path d="M37.5538819,19 C31.315165,18.2477232 38.2643408,10.7741502 39.8917356,15.628078 C40.4845247,16.6263309 38.4930197,18.5018985 37.5538819,19" id="Fill-2364" fill="#BFE050"/><path d="M87.332526,1.63993821 C88.8274545,-1.66612656 91.5499619,0.672738409 92,2.99792581 C91.1801287,6.46421357 85.5969832,5.05151568 87.332526,1.63993821" id="Fill-2366" fill="#BFE050"/><path d="M30.4176945,136 C23.5210114,135.618411 28.6625701,127.935014 31.9186734,132.379512 C32.3552823,133.188776 30.9151245,134.965838 30.4176945,136" id="Fill-2368" fill="#BCDF48"/><path d="M5,85.9900608 C4.98260606,82.3084163 11.9408094,84.417626 9.46871784,86.8404806 C7.98994404,90.52844 6.08048358,88.9875803 5,85.9900608" id="Fill-2370" fill="#BFE050"/><path d="M152,116.029274 C152.69869,112.819429 156.99345,113.686544 157,116.750783 C155.530568,119.793289 152.246725,119.934549 152,116.029274" id="Fill-2372" fill="#BCDF48"/><path d="M151.694048,83.4379724 C149.91958,84.6275182 147.456681,83.8796002 147,81.6595897 C148.304155,77.1269694 153.270849,78.8317475 151.694048,83.4379724" id="Fill-2376" fill="#B4D741"/><path d="M75.4452688,106.983499 C77.7591275,110.823957 72.1543947,112.838886 71.0796776,108.738289 C70.6316802,106.810073 72.0709909,104.722124 75.4452688,106.983499" id="Fill-2378" fill="#BFE050"/><path d="M145.980116,82.7908014 C144.89062,82.1090721 143.628187,82.4847696 142.671274,84 C137.350611,83.7337773 146.479709,73.7242998 145.980116,82.7908014" id="Fill-2382" fill="#BCDF48"/><path d="M87.2557421,143.007494 C88.2421988,137.922869 95.3408652,143.848184 90.0741897,145.96777 C88.4906043,146.24403 86.2358462,144.700781 87.2557421,143.007494" id="Fill-2386" fill="#FCFEA6"/><path d="M103.448129,87.9190224 C101.581899,84.5157922 106.022887,83.5626147 108,84.1722843 C104.927205,84.3724743 106.490854,91.6976089 103.448129,87.9190224" id="Fill-2388" fill="#BFE050"/><path d="M111.099389,134.169612 C110.357695,129.798154 114.041547,130.274254 113.095194,133.613783 C112.211931,134.923626 113.778415,133.837026 114,134.372353 C113.542981,135.663972 110.931662,137.370185 111.099389,134.169612" id="Fill-2390" fill="#BCDF48"/><path d="M109.78553,126.421235 C107.309392,122.265002 111.360276,125.4849 112.683321,122.035898 C115.888748,121.413335 112.580059,129.130631 109.78553,126.421235" id="Fill-2392" fill="#BCDF48"/><path d="M88.4408793,89 C86.3773371,87.2988403 86.2288494,82.7156186 90,84.3445204 C89.371111,85.888777 90.9062116,88.8121292 88.4408793,89" id="Fill-2394" fill="#BFE050"/><path d="M39.4680952,57 C36.7830838,56.0272923 38.0698839,49.8120451 41,52.8104492 C40.7084739,54.2573751 40.9424375,56.2401305 39.4680952,57" id="Fill-2396" fill="#BCDF48"/><path d="M99.8133828,49.0376568 C100.858682,48.6504118 104.758519,51.3627613 102.073152,52 C101.601253,48.6373402 94.8486583,52.2467258 99.8133828,49.0376568" id="Fill-2398" fill="#BCE378"/><path d="M137.663151,109 C136.928556,107.228648 135.119152,106.325323 133,107.517456 C134.073117,104.680726 139.37269,106.193755 137.663151,109" id="Fill-2400" fill="#BFE050"/><path d="M109,105.326891 C109.856793,103.469542 112.519412,103.878945 113.964482,103 C114.374431,104.709317 111.144033,107.21431 109,105.326891" id="Fill-2410" fill="#F8FB9B"/><path d="M56.9519552,19 C56.0908894,17.7624427 52.9414583,15.2653003 52.498234,18.8277833 C50.0126631,16.3987266 57.6724388,13.8375035 56.9519552,19" id="Fill-2412" fill="#F8FB9B"/><path d="M132.230613,125 C131.976876,123.81088 130.403328,123.694869 130,122.665265 C131.285727,120.548052 134.451758,124.079963 132.230613,125" id="Fill-2414" fill="#BFE050"/><path d="M16.376636,89.9192687 C14.7570622,88.2241744 18.8774716,85.2071666 19,88.4135497 C17.7982794,88.4970976 18.197282,90.4112731 16.376636,89.9192687" id="Fill-2420" fill="#BCDF48"/><path d="M144.106449,146 C146.15428,148.587425 148.001146,149.796561 148.809024,146.162889 C150.247931,150.193342 143.049375,149.740177 144.106449,146" id="Fill-2422" fill="#BCE378"/><path d="M13,77.857 C11.4082031,78.558524 9.70166016,79.286801 8,78.8855055 C9.01806641,77.2030369 12.8217773,73.9243039 13,77.857" id="Fill-2426" fill="#BCE378"/><path d="M28.8755485,131 C26.1274901,133.230781 27.6393727,134.545807 30,135.851675 C27.1113851,136.994538 25.5436403,131.163005 28.8755485,131" id="Fill-2432" fill="#BCE378"/><path d="M98.8518779,158 C96.2238779,156.796119 97.9578779,157.422566 97.8828779,156.191115 C97.1328779,152.994551 101.245878,157.149931 98.8518779,158" id="Fill-2444" fill="#BCE378"/><path d="M78,76 C79.7340108,76.4462959 80.4781829,76.9105333 81,78.9917524 C79.8433951,79.1397701 78.3962941,77.2626361 78,76" id="Fill-2450" fill="#BCE378"/><path d="M32,136 C32.9781594,134.95203 31.8990101,133.330258 34.5160915,133 C36.0424819,133.808118 33.6129532,135.819188 32,136" id="Fill-2454" fill="#BCE378"/><path d="M91.7201243,3 C90.6394107,2.87052966 90.6036518,1.92567166 90.8380713,1.05243555 C85.5437664,1.25352777 93.5577349,-2.47081047 91.7201243,3" id="Fill-2462" fill="#BCE378"/><path d="M47.7272145,27 C49.6862145,27.0997135 47.1302145,27.5683668 48.0602145,28.2823153 C49.1372145,32.0215707 44.3762145,28.7469801 47.7272145,27" id="Fill-2464" fill="#BCE378"/><path d="M13.316846,87.8860076 C13.4733162,86.3412679 15.0935405,87.258019 15.9440321,87.3897845 C16.5673894,89.9606126 11.7445722,91.4576925 13.316846,87.8860076" id="Fill-2466" fill="#BCDF48"/><path d="M13.3540655,87 C13.2252687,89.5924105 13.6648578,87.8809607 16,88.0736709 C13.6620578,90.9482641 12.3180911,90.6179038 13.3540655,87" id="Fill-2468" fill="#BFE050"/><path d="M89.9349795,103 C90.3823516,104.229217 88.4228617,107.323952 87.065833,105.367534 C86.5021441,104.766354 89.7381357,104.059812 89.9349795,103" id="Fill-2470" fill="#BCE378"/><path d="M63.9116351,49 C64.7936351,50.3440157 64.1576351,50.9758012 63.9236351,52 C62.8196351,51.1818182 61.6886351,49.6945716 63.9116351,49" id="Fill-2472" fill="#BCE378"/><path d="M48,30.5686719 C48.9720177,31.5586719 50.1583211,30.4816719 51,31.1056719 C50.3814433,33.0946719 48.1546392,32.7886719 48,30.5686719" id="Fill-2476" fill="#BCE378"/><path d="M87.0002082,110.070341 C86.9657369,108.267341 91.2263794,108.360341 89.6498957,110.217341 C88.7030863,108.789341 88.0113639,110.784341 87.0002082,110.070341" id="Fill-2478" fill="#BCE378"/><path d="M87.1628885,107.316992 C86.8268885,105.858992 89.6708885,108.801992 89.3198885,107.058992 C91.1168885,107.370992 87.9608885,109.080992 87.1628885,107.316992" id="Fill-2492" fill="#BCE378"/><path d="M34.118,132.53376 C32.822,132.79776 32.93,131.22276 32.882,130.43676 C34.094,130.66476 34.115,131.59476 34.118,132.53376" id="Fill-2494" fill="#BCE378"/><path d="M116.349,97.484 C115.533,97.046 114.717,96.602 114.651,95.516 C115.83,95.645 116.31,96.371 116.349,97.484" id="Fill-2498" fill="#FCFEA6"/><path d="M88.61344,0.972 C89.08444,1.356 89.04844,1.554 88.41544,2.028 C87.89344,1.707 87.95644,1.38 88.61344,0.972" id="Fill-2504" fill="#BCE378"/><path d="M15.0663247,85.3250629 C15.0033247,85.8110629 14.6523247,86.0750629 14.2473247,85.9760629 C13.4223247,85.3940629 14.4123247,84.5270629 15.0663247,85.3250629" id="Fill-2508" fill="#BFE050"/><path d="M137.432737,158.086 C137.699737,158.353 138.383737,158.599 137.465737,158.914 C136.718737,158.668 137.222737,158.371 137.432737,158.086" id="Fill-2522" fill="#BCE378"/><path d="M165.011221,88.3807205 C165.308221,89.2417205 163.865221,89.0467205 163.952221,88.2307205 C164.354221,87.8887205 164.696221,88.1197205 165.011221,88.3807205" id="Fill-2524" fill="#7C984A"/><path d="M63.7089634,49.966 C64.0809634,50.608 63.5859634,50.803 63.1599634,51.034 C63.2019634,50.605 63.1449634,50.125 63.7089634,49.966" id="Fill-2528" fill="#BCE378"/><path d="M63.1057275,52.2996229 C63.8077275,51.9066229 63.9877275,52.1916229 63.8527275,52.8786229 C63.4987275,52.8216229 63.2137275,52.6746229 63.1057275,52.2996229" id="Fill-2532" fill="#BCE378"/><path d="M6.51344575,153.119 C6.93644575,153.419 6.57044575,153.638 6.43544575,153.881 C6.22544575,153.602 6.23144575,153.347 6.51344575,153.119" id="Fill-2540" fill="#BCE378"/><path d="M85.7831963,120.233662 C85.7951963,120.623662 85.6301963,120.824662 85.2161963,120.752662 C85.2641963,120.425662 85.4231963,120.218662 85.7831963,120.233662" id="Fill-2548" fill="#BCE378"/><path d="M147.380399,82.2075 C147.653399,82.3125 147.755399,82.5105 147.698399,82.7925 C147.425399,82.6875 147.131399,82.5945 147.380399,82.2075" id="Fill-2552" fill="#BCE378"/><path d="M71.5670194,1.44444496 C71.3600194,1.58844496 71.3720194,1.59144496 71.5820194,1.45944496 L71.5670194,1.44444496 Z" id="Fill-2560" fill="#BFE050"/><path d="M88.6183603,1.2375 C88.6123603,1.4415 88.6033603,1.6515 88.3843603,1.7625 C88.3873603,1.5525 88.3303603,1.3185 88.6183603,1.2375" id="Fill-2562" fill="#BCE378"/><path d="M96.4471002,147.488378 L96.5521002,147.473378 C96.5611002,147.572378 96.4921002,147.506378 96.4471002,147.488378" id="Fill-2564" fill="#BCDF48"/><path d="M90.649063,93.7594354 C90.244063,93.6964354 90.241063,93.1984354 90.655063,93.2434354 C90.628063,93.4114354 90.658063,93.5884354 90.649063,93.7594354" id="Fill-2566" fill="#F8FB9B"/><path d="M98.388312,90.6395 C98.373312,90.4745 98.463312,90.3935 98.613312,90.3605 C98.538312,90.4535 98.463312,90.5465 98.388312,90.6395" id="Fill-2568" fill="#FCFEA6"/><path d="M90.48478,93.5405744 C90.53878,93.4385744 90.53878,93.4295744 90.47578,93.5315744 L90.48478,93.5405744 Z" id="Fill-2570" fill="#F8FB9B"/><path d="M69.549415,93.4459338 C69.513415,93.4789338 69.402415,93.6349338 69.465415,93.4999338 C69.486415,93.4729338 69.573415,93.4759338 69.549415,93.4459338" id="Fill-2574" fill="#FCFEA6"/><path d="M28.488625,96.5165 L28.515625,96.4835 C28.515625,96.4865 28.470625,96.5105 28.488625,96.5165" id="Fill-2576" fill="#BFE050"/><path d="M112.5,61.4985 L112.5,61.5015 L112.5,61.4985 Z" id="Fill-2578" fill="#F8FB9B"/><path d="M71.6455,99.302 C71.6215,99.488 71.5645,99.644 71.3545,99.698 C71.3605,99.5 71.4685,99.374 71.6455,99.302" id="Fill-2580" fill="#BCDF48"/><path d="M165.3173,73 C158.733586,68.5972186 168.302649,60.1659647 167.992598,68.6116947 C165.765545,68.0450615 165.462581,71.0415998 165.3173,73" id="Fill-2584" fill="#B4D741"/><path d="M166.085699,73.54202 C165.734671,71.4359087 166.43452,68.4001372 168.69523,68 C169.951425,69.6460734 166.975412,80.8666872 166.085699,73.54202" id="Fill-2588" fill="#F8FB9B"/><path d="M164.518901,84.0401212 C167.482901,83.3248843 164.959901,92.4735905 163.294901,87.5249242 C162.763901,86.5566305 163.447901,85.1033112 164.518901,84.0401212" id="Fill-2590" fill="#F8FB9B"/><path d="M169.3935,69.6005 C169.4655,69.5345 169.5375,69.4655 169.6065,69.3995 C169.5375,69.4655 169.4655,69.5345 169.3935,69.6005" id="Fill-2594" fill="#F8FB9B"/><path d="M113.342786,23.9034316 C113.905224,22.2206502 112.687313,21.824248 111,21.7039392 C114.86306,14.0782093 125.498632,25.1327413 113.342786,23.9034316" id="Fill-2604" fill="#B4D741"/><path d="M159.384051,60.7607997 C161.035789,63.6563424 159.10324,68.0921622 156.686372,67.9985419 C152.73293,66.1684876 156.605915,57.3971554 159.384051,60.7607997" id="Fill-2606" fill="#F8FB9B"/><path d="M139.249681,70.0709113 C142.52212,65.3046468 149.911654,69.6276964 145.772839,74.3598676 C143.113379,78.5874556 137.787219,73.7280022 139.249681,70.0709113" id="Fill-2608" fill="#F8FB9B"/><path d="M147.012644,65.7028619 C146.834153,63.3274359 148.582729,60.9451114 149.901663,60 C154.967318,62.1017805 149.596807,72.5531947 147.012644,65.7028619" id="Fill-2610" fill="#F8FB9B"/><path d="M120,23.5860107 C120.178424,21.4188303 119.777412,19.7078984 121.918497,19.269198 C129.069581,16.6611236 121.773638,34.1235964 120,23.5860107" id="Fill-2612" fill="#F8FB9B"/><path d="M135.633175,32.9780648 C132.918345,38.9779513 128.189681,29.8313158 133.210281,28.6185728 C134.579059,24.1675932 136.90231,29.9908872 135.633175,32.9780648" id="Fill-2614" fill="#F8FB9B"/><path d="M153.837764,60 C150.908953,58.6493754 151.819819,53.6985611 154.201391,52.0224581 C158.377692,51.5176345 157.565834,59.6878064 153.837764,60" id="Fill-2616" fill="#B4D741"/><path d="M141,48.8301365 C142.303068,40.7657685 150.798657,52.6953727 142.197044,50.7905792 C141.627593,51.1610441 141.116284,49.3500592 141,48.8301365" id="Fill-2618" fill="#F8FB9B"/><path d="M152.386705,71.1192498 C157.024112,69.9346921 154.765717,78.0257946 151.21069,75.5132499 C148.758673,74.7319819 150.485401,71.3807974 152.386705,71.1192498" id="Fill-2620" fill="#F8FB9B"/><path d="M156.690835,48.9929939 C150.813176,45.0907122 162.37252,40.9660934 159.547355,47.2055423 C158.231976,47.1757806 158.299391,49.1312981 156.690835,48.9929939" id="Fill-2622" fill="#B4D741"/><path d="M148.987007,56.8846266 C149.349373,62.0105454 141.990906,60.1557451 144.536604,56.0385413 C146.308848,54.7189774 148.457161,54.3196087 148.987007,56.8846266" id="Fill-2626" fill="#F8FB9B"/><path d="M167.757127,49.3683351 C167.448389,52.0151436 162.681769,51.1912343 163.016863,48.6886099 C163.491266,44.6651863 169.236813,45.375808 167.757127,49.3683351" id="Fill-2628" fill="#F8FB9B"/><path d="M148.649597,39.7138384 C150.401679,42.9638233 145.055138,44.4001926 144.242478,41.2175099 C142.825531,38.0507672 148.05573,36.6356511 148.649597,39.7138384" id="Fill-2630" fill="#FCFEA6"/><path d="M163.045094,37.7226115 C163.755566,34.6011318 168.669516,36.150041 167.92307,38.9712034 C167.08849,42.6714764 162.498301,40.7385251 163.045094,37.7226115" id="Fill-2632" fill="#F8FB9B"/><path d="M132.843381,79 C129.867685,77.9856128 130.59256,73.8173446 134.311665,74.0062192 C136.574841,74.6168054 136.996999,78.8990498 132.843381,79" id="Fill-2634" fill="#B4D741"/><path d="M129.04315,38.1368813 C131.795611,37.3132193 133.979875,40.4003045 132.547031,42.2271867 C128.771403,44.643811 126.580963,40.8648498 129.04315,38.1368813" id="Fill-2636" fill="#B4D741"/><path d="M114.788865,65.0045302 C117.257782,64.8795799 120.198818,67.3615476 118.492241,69.7034195 C115.328429,71.0759799 112.601993,67.3710136 114.788865,65.0045302" id="Fill-2638" fill="#B4D741"/><path d="M151.361651,34.773829 C147.426859,35.993433 145.281256,31.9615882 148.7242,30.2897062 C152.977387,28.8942163 152.152887,32.8932033 151.361651,34.773829" id="Fill-2640" fill="#B4D741"/><path d="M137.463877,69.4034332 C137.691877,69.3644332 137.493877,69.7784332 137.430877,69.5054332 C137.421877,69.4754332 137.451877,69.4394332 137.463877,69.4034332" id="Fill-2642" fill="#BCDF48"/><path d="M145.53266,66.5101913 C145.45466,66.4651913 145.44266,66.4651913 145.51766,66.5221913 L145.53266,66.5101913 Z" id="Fill-2644" fill="#F8FB9B"/><path d="M106.042996,46 C105.426488,42.1642645 111.65535,41.9756524 110.943176,45.6134385 C109.260179,44.1288184 107.600212,44.6311616 106.042996,46" id="Fill-2650" fill="#B4D741"/><path d="M112.412186,44.6605 C112.409186,44.5555 112.406186,44.4475 112.403186,44.3395 C112.499186,44.4445 112.781186,44.5435 112.412186,44.6605" id="Fill-2658" fill="#FCFEA6"/><path d="M116.750334,87.0762125 C117.904106,90.2922125 114.725382,90.9252125 114,88.2492125 C115.024175,88.5552125 115.839556,87.5082125 116.750334,87.0762125" id="Fill-2662" fill="#B4D741"/><path d="M101.49501,83.8893762 C97.6945252,84.9536295 96.5071305,77.9592731 100.400059,79.1333431 C103.249396,79.5241614 103.966352,83.4339598 101.49501,83.8893762" id="Fill-2666" fill="#BFE050"/><path d="M101.359426,74.9725648 C106.013422,70.988848 108.107946,80.6552996 103.140223,78.7477575 C100.795168,78.2817515 100.684574,76.3760226 101.359426,74.9725648" id="Fill-2668" fill="#FCFEA6"/><path d="M101.331736,85.612499 C101.304736,85.462499 101.370736,85.351499 101.517736,85.363499 C101.853736,85.462499 101.580736,85.717499 101.331736,85.612499" id="Fill-2670" fill="#FCFEA6"/><path d="M162.796365,76 C165.749385,77.1875995 165.271929,81.4435093 164.034147,83.7152588 C159.380302,85.7470057 158.470433,76.2482786 162.796365,76" id="Fill-2672" fill="#B4D741"/><path d="M152.318839,79.6609628 C154.545547,78.5837531 157.848658,78.362787 156.799567,82.6321677 C155.030731,85.528402 150.813481,83.4884114 152.318839,79.6609628" id="Fill-2674" fill="#F8FB9B"/><path d="M162.812313,75.2267266 C160.680983,77.2120612 157.207846,75.0491626 158.162484,72.41276 C160.041395,69.0305886 163.892211,72.4279797 162.812313,75.2267266" id="Fill-2676" fill="#F8FB9B"/><path d="M155.545999,75.9751904 C153.559228,76.3295625 157.920989,72.7808506 155,72.1436464 C155.911382,68.4734831 160.929172,74.6991182 155.545999,75.9751904" id="Fill-2678" fill="#B4D741"/><path d="M88.7552201,104.789387 C88.4432201,104.798387 88.1042201,104.537387 88.3052201,104.210387 C88.6022201,104.276387 88.6352201,104.588387 88.7552201,104.789387" id="Fill-2680" fill="#BCE378"/><path d="M111,98 C112.06102,98.0757009 114.408556,99.5757009 113.938574,101 C112.811092,100.203738 111.386904,99.8084112 111,98" id="Fill-2682" fill="#F8FB9B"/><path d="M139.509,55.4175 C139.584,55.4835 139.578,55.5315 139.491,55.5825 C139.416,55.5135 139.422,55.4655 139.509,55.4175" id="Fill-2686" fill="#7C984A"/><path d="M101.522886,69.4175909 C101.561886,69.6155909 101.546886,69.6455909 101.456886,69.4505909 L101.522886,69.4175909 Z" id="Fill-2688" fill="#BCDF48"/><path d="M101.51825,107.457796 C101.52725,107.463796 101.51825,107.457796 101.51825,107.457796 C101.46425,107.565796 101.46425,107.574796 101.51825,107.457796" id="Fill-2690" fill="#FCFEA6"/><path d="M49.5433143,28.5206078 C49.5373143,28.5266078 49.5433143,28.5206078 49.5433143,28.5206078 C49.4293143,28.4636078 49.4263143,28.4606078 49.5433143,28.5206078" id="Fill-2692" fill="#BCE378"/><path d="M49.4555607,28.4777083 C49.4615607,28.4717083 49.4555607,28.4777083 49.4555607,28.4777083 C49.5725607,28.5407083 49.5755607,28.5407083 49.4555607,28.4777083" id="Fill-2694" fill="#BCE378"/><path d="M33.4572426,88.4788333 C33.4602426,88.4728333 33.4572426,88.4788333 33.4572426,88.4788333 C33.5682426,88.5388333 33.5742426,88.5388333 33.4572426,88.4788333" id="Fill-2696" fill="#BCE378"/><path d="M33.5410644,88.5222917 C33.5380644,88.5282917 33.5410644,88.5222917 33.5410644,88.5222917 C33.4330644,88.4592917 33.4300644,88.4592917 33.5410644,88.5222917" id="Fill-2698" fill="#BCE378"/><path d="M96.5338133,123.550735 C96.4198133,123.421735 96.4228133,123.415735 96.5488133,123.532735 L96.5338133,123.550735 Z" id="Fill-2700" fill="#BCDF48"/><path d="M126.543216,88.52475 C126.546216,88.51875 126.543216,88.52475 126.543216,88.52475 C126.423216,88.45875 126.429216,88.45875 126.543216,88.52475" id="Fill-2702" fill="#BFE050"/><path d="M109.56,131.558708 C109.518,131.516708 109.482,131.480708 109.44,131.441708 C109.515,131.435708 109.548,131.495708 109.56,131.558708" id="Fill-2704" fill="#BCDF48"/><path d="M103.815401,76 C103.154314,73.9763393 100.279783,74.6568624 101.169212,72.3502474 C102.87257,68.2151744 109.328755,74.7840128 103.815401,76" id="Fill-2710" fill="#B4D741"/><path d="M139.317,107.393346 C139.437,107.426346 139.56,107.456346 139.683,107.486346 C139.47,107.768346 139.419,107.477346 139.317,107.393346" id="Fill-2716" fill="#FCFEA6"/><path d="M16.963,87.9444485 C17.617,88.0164485 17.956,88.3944485 18.037,89.0304485 C17.137,89.2074485 17.221,88.4064485 16.963,87.9444485" id="Fill-2722" fill="#BFE050"/><path d="M71.5173784,109.424538 C71.4543784,109.457538 71.4843784,109.439538 71.5173784,109.424538 C71.5263784,109.586538 71.5023784,109.661538 71.5173784,109.424538" id="Fill-2724" fill="#BFE050"/><path d="M115.488458,47.4371831 C115.602458,47.5841831 115.584458,47.6021831 115.437458,47.4911831 L115.488458,47.4371831 Z" id="Fill-2726" fill="#7C984A"/><path d="M88.632,123.6335 C88.545,123.5465 88.455,123.4535 88.368,123.3665 C88.455,123.4535 88.545,123.5465 88.632,123.6335" id="Fill-2730" fill="#BCDF48"/><path d="M163.780815,60.8061088 C167.358179,57.9768335 169.769789,63.3822012 166.352631,64.9402502 C164.384143,65.4058944 161.635078,63.0670504 163.780815,60.8061088" id="Fill-2732" fill="#FCFEA6"/><path d="M167.45138,80.5523638 C167.48738,80.5193638 167.59238,80.3663638 167.53238,80.5043638 C167.51438,80.5313638 167.43638,80.5283638 167.45138,80.5523638" id="Fill-2734" fill="#B4D741"/><path d="M156.6155,23.5855758 C156.5315,23.6035758 156.4505,23.5825758 156.3845,23.5255758 C156.5285,23.2825758 156.5615,23.4745758 156.6155,23.5855758" id="Fill-2736" fill="#7C984A"/><path d="M150.395857,33.656 C150.167857,33.26 150.527857,33.398 150.677857,33.344 C150.581857,33.449 150.488857,33.551 150.395857,33.656" id="Fill-2738" fill="#7C984A"/><path d="M123.552061,69.479252 C123.513061,69.416252 123.534061,69.449252 123.552061,69.479252 C123.534061,69.680252 123.327061,69.419252 123.552061,69.479252" id="Fill-2744" fill="#7C984A"/><path d="M150.515705,69.5521748 C150.572705,69.5011748 150.545705,69.5281748 150.515705,69.5521748 C150.362705,69.5221748 150.530705,69.3331748 150.515705,69.5521748" id="Fill-2746" fill="#7C984A"/><path d="M153.443425,74.4540126 C153.476425,74.4870126 153.641425,74.5950126 153.500425,74.5350126 C153.470425,74.5170126 153.473425,74.4210126 153.443425,74.4540126" id="Fill-2748" fill="#F8FB9B"/></g></g></g><g id="Chair-2" transform="translate(64.500000, 176.000000) scale(-1, 1) translate(-64.500000, -176.000000) translate(9.000000, 111.000000)"><path d="M99.650341,29.1784521 C107.540341,41.3946795 94.6566208,70.0809878 74.4875322,82.8156657 C54.3197384,95.5503435 31.5961748,94.6760185 23.7061744,82.4597911 C15.8148794,70.2435637 25.7686573,50.0175977 45.9364511,37.2842 C66.104245,24.5508022 91.759046,16.9622246 99.650341,29.1784521" id="Fill-1" fill="#B28A64"/><path d="M11.7799272,126 C11.4343785,126 11.1056544,125.900536 10.8248152,125.706776 C9.60568856,124.864566 8.08630991,123.815678 19.6369525,101.627563 C25.0971386,91.1386832 30.9857015,80.7596007 31.0439401,80.6549702 C31.3972538,80.0362296 32.1841211,79.8179266 32.8092147,80.1679865 C33.4304258,80.5206299 33.6491438,81.3085876 33.2958301,81.9299117 C24.0617869,98.1915508 14.7604459,116.195739 12.9265792,122.217803 C17.2854099,117.221376 28.6859265,98.4124373 38.5748296,80.6640123 C38.9216725,80.04398 39.7072456,79.8140514 40.3349275,80.1641113 C40.958727,80.510296 41.183916,81.296962 40.8370731,81.9208695 C33.6439671,94.8291672 16.4558344,124.961446 12.2070097,125.950914 C12.0620605,125.983207 11.9196996,126 11.7799272,126 L11.7799272,126 Z" id="Fill-3" fill="#3A332D"/><path d="M77.2939934,130 C68.9527861,130 58.9582413,92.6134113 57.0409256,85.1179708 C56.8653612,84.4364511 57.2708014,83.7396163 57.9477983,83.5634932 C58.6197429,83.3809889 59.3106333,83.7957715 59.4849348,84.4798437 C66.3736302,111.375623 73.9494269,127.447492 77.2939934,127.447492 C77.3571461,127.447492 77.5023973,127.447492 77.7360623,127.174373 C81.3572375,122.925723 78.6201999,93.8143665 76.0448332,76.4649677 C75.9412628,75.768133 76.4174341,75.1172434 77.1070615,75.0125905 C77.8206869,74.9155952 78.4395832,75.3890855 78.5431536,76.0859203 C79.2428854,80.7978505 85.2158669,122.308016 79.6483257,128.841161 C78.832393,129.799628 77.917942,130 77.2939934,130" id="Fill-5" fill="#3A332D"/><g id="Group-9" transform="translate(79.000000, 72.000000)" fill="#3A332D"><path d="M30.6847962,47.4932757 C29.8648731,47.4932757 28.1615654,47.4932757 0.525334615,7.40419459 C0.121719231,6.81781622 0.258796154,6.0083027 0.831219231,5.59576216 C1.40364231,5.18451892 2.19818077,5.32332973 2.60052692,5.90841081 C9.50514231,15.9248432 19.6209115,30.2924108 25.8414115,38.5574919 C20.7695654,29.1378162 11.5282962,13.1797622 5.04125769,2.2188973 C4.67825769,1.60527568 4.86991154,0.808735135 5.47025769,0.437708108 C6.07060385,0.0640864865 6.84991154,0.262572973 7.21291154,0.874897297 C33.0811038,44.5847351 32.3195654,45.9650595 31.8639115,46.7901405 C31.6392577,47.1974919 31.1429885,47.4932757 30.6847962,47.4932757" id="Fill-7"/></g><path d="M100.12985,12.7570996 C110.982487,29.7534058 98.228601,57.2970468 71.6486289,74.2752416 C45.0673635,91.2547301 14.7211086,91.239206 3.86976487,74.2428997 C-6.98157888,57.2465935 5.76972005,29.7042462 32.3522788,12.7247577 C58.9322509,-4.25343705 89.2785058,-4.2405003 100.12985,12.7570996" id="Fill-10" fill="#EABD91"/><path d="M7.08234225,75 C6.73492051,75 6.40217855,74.7759458 6.24804074,74.3942237 C6.22357442,74.3333695 5.63271279,72.8618033 5.03084131,70.3045421 C4.90116982,69.7513217 5.19231903,69.1828878 5.68042211,69.0362844 C6.17953504,68.8855319 6.67497802,69.2188471 6.8034262,69.7706845 C7.36248162,72.1426168 7.9117505,73.5187525 7.91786708,73.5311999 C8.12705412,74.0526101 7.92276034,74.6694508 7.46279353,74.9059525 C7.33923861,74.9709559 7.20956712,75 7.08234225,75" id="Fill-12" fill="#CB9A6E"/><path d="M77.0351895,4.16589161 C77.0055711,4.16589161 76.9746649,4.16459624 76.9437587,4.16200552 C74.4699758,3.92754475 71.9511213,3.87443485 69.1734275,4.02858309 C68.6415835,4.05967181 68.1844295,3.64904163 68.154811,3.1127612 C68.1251926,2.5751854 68.5321241,2.11792214 69.0652559,2.08812878 C71.8377986,1.93398054 74.5369392,1.98320435 77.1240448,2.22673266 C77.6546011,2.27725183 78.0447917,2.75135482 77.9958569,3.28504452 C77.9482099,3.78894087 77.5284008,4.16589161 77.0351895,4.16589161 M53.5876936,6.97294401 C53.1781866,6.97294401 52.798298,6.70868988 52.6669467,6.29546897 C52.505977,5.78380044 52.7867082,5.23715711 53.2953726,5.07523669 C55.888917,4.24620414 58.5082166,3.57650128 61.0798691,3.08296784 C61.6026988,2.97804341 62.1087877,3.32779151 62.2092328,3.8550044 C62.3096779,4.38221729 61.9671343,4.89129509 61.4430168,4.99103807 C58.9460543,5.47032251 56.4014446,6.12189028 53.8800147,6.92760629 C53.7821451,6.95869501 53.6842755,6.97294401 53.5876936,6.97294401 M39.0875396,13.3318827 C38.7488593,13.3318827 38.4191933,13.1518272 38.2414827,12.8318725 C37.9839311,12.3629509 38.1526274,11.7709699 38.6187957,11.5106019 C40.9985723,10.1841498 43.4131184,8.97816649 45.7941828,7.92892217 C46.2796675,7.71389185 46.851432,7.93669435 47.0664876,8.42893242 C47.2815432,8.91987513 47.058761,9.49242574 46.569413,9.70745606 C44.2424345,10.7333838 41.8819743,11.9108691 39.5562835,13.2101186 C39.4069036,13.2930218 39.2459338,13.3318827 39.0875396,13.3318827 M25.9112007,22.1571933 C25.6266062,22.1571933 25.3445873,22.0315431 25.1552869,21.7893101 C24.8230453,21.368317 24.8925842,20.7582009 25.3098178,20.4252925 C26.2370035,19.6843446 27.2015342,18.9472829 28.2046976,18.2154026 C29.3791328,17.3565767 30.5857619,16.5107044 31.7885278,15.7023977 C32.2328043,15.4057595 32.8328995,15.5262283 33.127796,15.9718333 C33.4239804,16.4174383 33.3042189,17.0210776 32.8599424,17.3190112 C31.6777806,18.1130689 30.4930434,18.9421014 29.3392123,19.7866784 C28.3579408,20.5030143 27.4165897,21.2232363 26.5125837,21.9460491 C26.3335853,22.088539 26.122393,22.1571933 25.9112007,22.1571933 M14.7167213,33.3802214 C14.51068,33.3802214 14.303351,33.3141579 14.1269282,33.1768494 C13.7045436,32.8478271 13.6285658,32.237711 13.9556564,31.8141271 C15.5447496,29.7493179 17.3424596,27.7155975 19.2998517,25.7686663 C19.681028,25.3917156 20.292713,25.3943063 20.6661628,25.7764385 C21.0409003,26.1572753 21.0383248,26.7725729 20.6584362,27.1495237 C18.7615689,29.0368681 17.0205202,31.0071158 15.4816495,33.0032707 C15.2923491,33.2506851 15.0064668,33.3802214 14.7167213,33.3802214 M7.16273341,47.3027868 C7.05971278,47.3027868 6.95540439,47.2859471 6.85367152,47.2509723 C6.34758266,47.0799843 6.0771535,46.5281595 6.2484253,46.0203771 C7.09577,43.4983046 8.19551525,40.996958 9.51417935,38.5824007 C9.77173093,38.1121838 10.3589485,37.9386051 10.8264047,38.1989731 C11.2938608,38.4580458 11.4638448,39.0487315 11.207581,39.5189484 C9.94171497,41.8324674 8.88961676,44.2301849 8.07704152,46.6421515 C7.94182694,47.0476002 7.56580164,47.3027868 7.16273341,47.3027868 M5.03149408,63 C4.52282971,63 4.09658184,62.5997327 4.06825117,62.0841781 C4.0244674,61.3082555 4,60.5025394 4,59.6709162 C4,57.7602552 4.13135131,55.8340499 4.38890289,53.9441148 C4.46230509,53.4130158 4.93877551,53.0308836 5.47834607,53.1137868 C6.00632681,53.1876226 6.37591333,53.6772699 6.30251113,54.2096642 C6.05654937,56.0102193 5.93163686,57.8483399 5.93163686,59.6709162 C5.93163686,60.4649739 5.95610426,61.2331244 5.99731251,61.9727769 C6.02693094,62.5090573 5.61999944,62.9689113 5.08815543,62.9987046 C5.06883906,63 5.05081045,63 5.03149408,63" id="Fill-14" fill="#CB9A6E"/><path d="M88.9584862,7 C88.8086144,7 88.6545795,6.97233203 88.5102586,6.91098131 C88.4963816,6.90616949 87.1711266,6.36123074 84.7593015,5.77178265 C84.2056086,5.63705166 83.8836619,5.13902817 84.0390844,4.66025196 C84.1931193,4.18147575 84.7579138,3.89517239 85.3227083,4.03591816 C87.9301994,4.67107856 89.3525934,5.26052665 89.4108768,5.28458576 C89.9284895,5.50111771 90.1449709,6.03883872 89.8979601,6.48754105 C89.7189466,6.81113602 89.3456549,7 88.9584862,7" id="Fill-16" fill="#CB9A6E"/><path d="M14.8984666,79 C14.5135056,79 14.1388297,78.8371289 13.9375333,78.5479736 C13.9022697,78.4972239 13.0662283,77.2922135 12.07297,75.2020338 C11.8555111,74.7464667 12.1405586,74.2342487 12.7091843,74.0595753 C13.27781,73.8825415 13.9154936,74.1138657 14.1314832,74.570613 C15.0615608,76.5274272 15.8520534,77.6710659 15.8594,77.6828681 C16.156202,78.1089296 15.9681294,78.6482927 15.4362367,78.8866983 C15.2657959,78.963413 15.080662,79 14.8984666,79" id="Fill-18" fill="#CB9A6E"/><path d="M82.0337855,11.6406797 C81.9795947,11.6406797 81.9254039,11.6368285 81.8712131,11.6265585 C79.3461792,11.2016362 76.7230857,10.9667095 74.0741871,10.9256294 C73.5400205,10.9179268 73.1142355,10.4801671 73.121977,9.9486934 C73.1310088,9.42107095 73.5619548,9 74.0896701,9 L74.103863,9 C76.8495309,9.0436476 79.5732645,9.28756065 82.1937775,9.72917165 C82.7202025,9.81646685 83.0763136,10.314563 82.9859956,10.8383342 C82.9072898,11.3081877 82.496988,11.6406797 82.0337855,11.6406797 M58.2840159,12.8435562 C57.8530699,12.8435562 57.4582511,12.5547118 57.3472889,12.1195196 C57.2156827,11.6047347 57.527925,11.0796797 58.0453182,10.9487369 C60.7006682,10.2760504 63.3779524,9.77025175 66.0036264,9.44546226 C66.5532761,9.38255837 67.0190591,9.75484671 67.083572,10.2811854 C67.1493751,10.8100916 66.7739102,11.2914989 66.2436143,11.3556866 C63.696646,11.6702061 61.0993577,12.1605997 58.5240038,12.8140299 C58.4440078,12.8345699 58.3627216,12.8435562 58.2840159,12.8435562 M43.3712198,18.4317326 C43.0151087,18.4317326 42.6731905,18.2366022 42.5028765,17.8976914 C42.2654691,17.4214191 42.460298,16.8437303 42.9389835,16.606236 C45.3956338,15.390522 47.8832502,14.304467 50.3360297,13.3801649 C50.8276178,13.1901695 51.3940409,13.4405013 51.5824185,13.9398812 C51.7720863,14.4366936 51.5217764,14.9925586 51.0211564,15.1812703 C48.6290191,16.0824648 46.2007545,17.1428447 43.8008755,18.3315999 C43.662818,18.3996388 43.5157286,18.4317326 43.3712198,18.4317326 M29.7757766,26.7183577 C29.4828881,26.7183577 29.1912899,26.5861311 29.0003318,26.3345155 C28.6790577,25.9095933 28.765505,25.3062295 29.1925802,24.986575 C30.2363985,24.2047695 31.351181,23.4203964 32.5020907,22.6527122 C33.641388,21.8965817 34.7703633,21.1802476 35.8864361,20.4998586 C36.3444775,20.2187167 36.9392862,20.3650645 37.2179818,20.8182293 C37.4953872,21.2726778 37.3534588,21.8657717 36.8979979,22.1430623 C35.8012791,22.8093301 34.6955284,23.5141104 33.5768752,24.2548358 C32.4556414,25.0006963 31.3718251,25.7645293 30.3563925,26.5257947 C30.1822077,26.6554538 29.9770568,26.7183577 29.7757766,26.7183577 M18.5079579,37.887008 C18.3105485,37.887008 18.1118489,37.8266716 17.9402446,37.7047151 C17.5080083,37.3914794 17.411239,36.7893992 17.7247716,36.359342 C19.2653391,34.2475685 21.0536359,32.1884288 23.0419227,30.2371244 C23.4212584,29.8661198 24.0367113,29.8661198 24.4108859,30.2473944 C24.7863509,30.6261015 24.7811898,31.2358842 24.4005639,31.6094563 C22.4884023,33.486303 20.7697793,35.4645662 19.2924345,37.4903283 C19.1027666,37.7496464 18.8072976,37.887008 18.5079579,37.887008 M11.8966785,52.221393 C11.8257144,52.221393 11.7534599,52.2136905 11.6824958,52.1982854 C11.1599415,52.0814639 10.8335063,51.566679 10.9509198,51.0467591 C11.5470187,48.4137818 12.4347159,45.8231685 13.5856256,43.3493766 C13.8114206,42.8654018 14.3868755,42.6600013 14.870722,42.8808068 C15.3558588,43.1041798 15.5661708,43.6767336 15.3429563,44.1594247 C14.2475277,46.5099763 13.4062798,48.9696469 12.8385665,51.4703975 C12.7379264,51.9184273 12.3379466,52.221393 11.8966785,52.221393 M11.6476588,68 C11.1896174,68 10.781896,67.6739268 10.696739,67.210492 C10.2348269,64.6840662 10,62.1358167 10,59.6363498 L10.0038708,59.1202811 C10.0116123,58.5926587 10.4438486,58.1715877 10.9715639,58.1715877 L10.9857567,58.1715877 C11.5212136,58.1792902 11.9469986,58.61705 11.939257,59.1485237 L11.9353862,59.6363498 C11.9353862,62.0202789 12.159891,64.4529907 12.6011591,66.8651624 C12.6979284,67.3889336 12.3482686,67.8883135 11.8231338,67.9858787 C11.763782,67.994865 11.7057204,68 11.6476588,68" id="Fill-20" fill="#CB9A6E"/><path d="M93.1157237,15 C92.9672846,15 92.8176673,14.9643753 92.679831,14.8897862 C92.6692282,14.8842199 91.5771404,14.3042059 89.582637,13.6195446 C89.1231826,13.4614602 88.8863868,12.9827538 89.0536754,12.5496916 C89.2186077,12.1155161 89.7275418,11.8939753 90.1858182,12.0498332 C92.3381854,12.7890448 93.506849,13.4135895 93.5551506,13.440308 C93.9780843,13.6685285 94.1253453,14.1772931 93.8838372,14.5780705 C93.721261,14.8474819 93.4232047,15 93.1157237,15" id="Fill-22" fill="#CB9A6E"/><path d="M21.9011555,81 C21.5128663,81 21.1377642,80.8334184 20.9384913,80.5392424 C20.9033255,80.4896224 20.0857202,79.2810199 19.0761682,77.2099738 C18.8549166,76.7539419 19.1318474,76.2400201 19.697431,76.0604428 C20.260084,75.8844097 20.8989297,76.1053371 21.1231118,76.5613689 C22.0740541,78.5166349 22.8564936,79.6767988 22.865285,79.6886131 C23.155403,80.1174721 22.961991,80.656204 22.4286428,80.890127 C22.2616052,80.9657385 22.0799151,81 21.9011555,81" id="Fill-24" fill="#CB9A6E"/><path d="M62.3612878,18.9407513 C61.909529,18.9407513 61.5078231,18.6211397 61.4179847,18.1610536 C61.3165956,17.6352409 61.6554147,17.1287595 62.1764774,17.025659 C64.7612564,16.5178889 67.3396183,16.1737908 69.8435427,16.0010975 C70.3325203,15.9766111 70.8330485,16.3645268 70.8689839,16.8993608 C70.9049192,17.4316173 70.5057801,17.8929922 69.9744501,17.9290774 C67.5513803,18.0966157 65.0525895,18.4304037 62.5486651,18.9227087 C62.4857782,18.9343075 62.4228913,18.9407513 62.3612878,18.9407513 M85.0390656,19.1546849 C84.9607779,19.1546849 84.8837735,19.1456636 84.8054858,19.1263323 C82.45557,18.5386592 79.981164,18.143011 77.4477212,17.94712 C76.9176747,17.9058797 76.5211023,17.4419274 76.5608879,16.9096709 C76.6019569,16.3761256 77.0511489,15.9959424 77.5953129,16.01914 C80.2352783,16.2240524 82.816207,16.6377432 85.2700786,17.2499026 C85.7860077,17.3787783 86.1004421,17.9033022 85.9708181,18.4213824 C85.863012,18.8608484 85.4702899,19.1546849 85.0390656,19.1546849 M47.8190184,23.4178918 C47.4404138,23.4178918 47.0823436,23.1923594 46.9296183,22.8199088 C46.7255568,22.326315 46.9604201,21.7605508 47.4519644,21.5569273 C49.8801679,20.5516971 52.3186386,19.6663213 54.6967893,18.9278637 C55.2101516,18.7757905 55.7453317,19.0567394 55.9019072,19.5657983 C56.0584827,20.0761459 55.7735666,20.6174237 55.2666214,20.7759407 C52.9423738,21.4963557 50.5603729,22.3611114 48.1860725,23.3444327 C48.0654323,23.3946942 47.9422254,23.4178918 47.8190184,23.4178918 M34.2957731,30.4093965 C33.9839056,30.4093965 33.6758882,30.2573232 33.4923612,29.9763743 C33.1971779,29.5317533 33.3191014,28.9324814 33.7631598,28.6373562 C35.3558662,27.5779982 37.0756298,26.5598805 38.8723977,25.6087781 C39.4062944,25.3265404 39.9376244,25.0494577 40.4663875,24.7826851 C40.9399642,24.5416876 41.5200635,24.7350011 41.758777,25.211841 C41.9987738,25.6873922 41.806263,26.2699102 41.3314029,26.509619 C40.8154738,26.7712366 40.2944111,27.0405867 39.7707816,27.3189581 C38.0292002,28.2404191 36.364623,29.2250292 34.8258197,30.2483019 C34.6615438,30.3578462 34.4767333,30.4093965 34.2957731,30.4093965 M23.2379501,40.8096625 C23.0428724,40.8096625 22.8465114,40.7503797 22.6758184,40.626659 C22.2445941,40.3147799 22.1470553,39.7103531 22.4576395,39.2773308 C23.9322725,37.2230528 25.6751374,35.2551214 27.6400315,33.4315308 C28.02762,33.0706789 28.6398045,33.091299 29.0004414,33.4856586 C29.3610784,33.8774406 29.3379771,34.4883112 28.9465384,34.8517406 C27.0766164,36.586407 25.4197397,38.4576816 24.0195441,40.4075704 C23.8321669,40.669188 23.5369836,40.8096625 23.2379501,40.8096625 M17.4228391,54.7991156 C17.3702195,54.7991156 17.3163164,54.7952494 17.2624134,54.7849393 C16.7387839,54.6973038 16.3845639,54.198555 16.4731189,53.6727423 C16.9081934,51.0604327 17.634601,48.5202933 18.6318072,46.1244948 C18.8371521,45.6296122 19.4018506,45.3989248 19.8908282,45.6038371 C20.3810891,45.8113269 20.6133855,46.3770911 20.409324,46.8693961 C19.4685877,49.1298752 18.7832491,51.5256738 18.3712759,53.992354 C18.2929881,54.4640389 17.8848651,54.7991156 17.4228391,54.7991156 M17.9490354,70 C17.5062605,70 17.1071213,69.6919872 17.0095825,69.2396336 C16.4410338,66.6350565 16.1022147,64.0291906 16.0008257,61.4967838 C15.9790078,60.9619498 16.3922644,60.5134625 16.9235943,60.4915536 C17.479309,60.4657785 17.9028328,60.8846244 17.9233673,61.4181696 C18.0209061,63.8384546 18.3456078,66.3309099 18.8897718,68.8272315 C19.0039949,69.3478891 18.675443,69.8633918 18.1556637,69.9780911 C18.0863598,69.9922675 18.0170559,70 17.9490354,70" id="Fill-26" fill="#CB9A6E"/><path d="M96.0814802,24 C95.8869965,24 95.6912897,23.9333639 95.5249388,23.7960934 C95.5139303,23.7867644 94.4840229,22.9364874 92.5171688,21.8982965 C92.0621503,21.6570737 91.8713361,21.0600139 92.0915063,20.5629084 C92.3116765,20.0671356 92.8596558,19.8605636 93.3171206,20.0991209 C95.4711194,21.2359333 96.5952108,22.1701719 96.6416912,22.2088208 C97.0428903,22.5459996 97.1187267,23.1723793 96.8104884,23.6095123 C96.6294595,23.865395 96.3579162,24 96.0814802,24" id="Fill-28" fill="#CB9A6E"/><path d="M29.9416345,82 C29.5843969,82 29.2342193,81.8457467 29.0351264,81.5671342 C28.9998263,81.5169121 28.1427385,80.3103883 27.0879698,78.2536776 C26.8549888,77.7992881 27.1006779,77.2707612 27.6372403,77.0746563 C28.1794507,76.8761598 28.7993214,77.0878097 29.0294784,77.5398077 C30.0235308,79.4757464 30.8410824,80.628461 30.8481425,80.6392228 C31.1488998,81.0637183 30.9893431,81.6149646 30.4894929,81.8708577 C30.3186401,81.9581483 30.1294313,82 29.9416345,82" id="Fill-30" fill="#CB9A6E"/><path d="M62.1735744,26.164065 C61.7361651,26.164065 61.342241,25.8613905 61.241202,25.4112591 C61.1209784,24.8899862 61.444559,24.3687133 61.9599856,24.249713 C64.6790852,23.6159073 67.4020217,23.1955259 70.0520566,23.0002103 C70.5713202,22.9898625 71.0394249,23.362385 71.0790731,23.8965927 C71.1174423,24.4308004 70.7209602,24.8964536 70.1927438,24.935258 C67.638632,25.1228128 65.0154555,25.5289658 62.389721,26.1381954 C62.3168195,26.1563042 62.2451969,26.164065 62.1735744,26.164065 M86.0405155,26.612903 C85.9497083,26.612903 85.8576222,26.5999682 85.7642571,26.5702181 C83.2983944,25.8199991 80.7046344,25.3026066 78.0609943,25.0322691 C77.5340568,24.9779429 77.1490855,24.5032353 77.2028025,23.9703211 C77.2565194,23.4374069 77.7438086,23.0403082 78.2528404,23.1023953 C81.0192621,23.3856677 83.7319667,23.9276362 86.316774,24.7140727 C86.8232479,24.867997 87.1122961,25.4086721 86.9588191,25.9221841 C86.8334796,26.3425654 86.4523453,26.612903 86.0405155,26.612903 M47.1123719,31.775186 C46.759375,31.775186 46.4230047,31.5798704 46.2541801,31.2409783 C46.0150119,30.7623903 46.206858,30.1790303 46.6800786,29.9384429 C49.1689627,28.6721249 51.6795895,27.5610246 54.1428942,26.6323052 C54.6365783,26.4486309 55.1903742,26.7021532 55.3771044,27.2040238 C55.5612768,27.704601 55.3093188,28.2646783 54.8117978,28.4522331 C52.4149997,29.3550829 49.9683217,30.43902 47.5421073,31.6717075 C47.4026991,31.7415555 47.256896,31.775186 47.1123719,31.775186 M33.9427726,40.9951192 C33.6972095,40.9951192 33.4542044,40.9019886 33.2661951,40.7131403 C32.8901767,40.3354438 32.8888977,39.7210403 33.2623582,39.3420504 C35.1028024,37.4652093 37.2386896,35.6905533 39.6086291,34.065941 C40.0473174,33.7645599 40.6433194,33.8822667 40.9413205,34.3259307 C41.2393215,34.7683012 41.1242138,35.3723569 40.6855256,35.673738 C38.416625,37.2285023 36.3766609,38.921669 34.623187,40.7079664 C34.4364567,40.8994016 34.1883357,40.9951192 33.9427726,40.9951192 M25.9274401,54.8793452 C25.8468647,54.8793452 25.7650103,54.8689974 25.6857139,54.8483017 C25.1715662,54.7124861 24.8646123,54.1834524 24.9989046,53.6660599 C25.6946667,50.9600975 26.7664473,48.3576136 28.1848299,45.931043 C28.4546935,45.4718572 29.0404637,45.315346 29.4983366,45.5908575 C29.9549304,45.8624885 30.1058494,46.4574898 29.8359858,46.9192626 C28.5096894,49.1893219 27.5069734,51.6236533 26.8546965,54.1537023 C26.7421467,54.5908989 26.3533385,54.8793452 25.9274401,54.8793452 M25.9108134,71 C25.4746831,71 25.0782011,70.6960319 24.9771621,70.244607 C24.3466277,67.4377531 24.0179313,64.6554753 24,61.9727955 C23.9961887,61.4372943 24.4233662,61.0000977 24.9528616,60.9962173 L24.9592564,60.9962173 C25.4861939,60.9962173 25.9146503,61.4269465 25.9184872,61.9598607 C25.9351139,64.5028445 26.2471837,67.1454264 26.8483016,69.8151713 C26.9659673,70.3364442 26.6423867,70.8577171 26.1244021,70.9767173 C26.0540585,70.9922391 25.982436,71 25.9108134,71" id="Fill-32" fill="#CB9A6E"/><path d="M97.0617658,32 C96.8492999,32 96.6343344,31.9261839 96.4593625,31.7772792 C96.4493641,31.7683703 95.41578,30.8914865 93.478591,29.7855185 C93.0261636,29.5271623 92.8674391,28.9455427 93.1198986,28.4848287 C93.3736078,28.0253875 93.9447662,27.8675738 94.3959437,28.1195666 C96.5043553,29.3235318 97.6204261,30.276777 97.6666687,30.3175031 C98.0628551,30.6560388 98.1128471,31.2580214 97.7791507,31.6601916 C97.5941804,31.8854579 97.3292229,32 97.0617658,32" id="Fill-34" fill="#CB9A6E"/><path d="M36.8943027,82 C36.8943027,82 25.4273596,55.6957912 48.1422882,38.598705 C70.8585049,21.5016188 96,38.598705 96,38.598705" id="Fill-36" fill="#E8BB8F"/><path d="M82.4378477,38.5621523 C75.7308132,31.8551178 61.8155703,34.8966799 51.3548466,45.3548466 C40.8966799,55.8155703 37.8551178,69.7308132 44.5621523,76.4378477 C51.2691868,83.1448822 65.1844297,80.1033201 75.6451534,69.6451534 C86.1033201,59.1844297 89.1448822,45.2691868 82.4378477,38.5621523" id="Fill-38" fill="#FEC1C7"/></g><g id="Board" transform="translate(128.000000, 28.000000)"><path d="M97.1806174,3.2523928 C97.1806174,3.2523928 106.807127,2.24550953 104.157644,25.3926373 C101.506565,48.5381668 95.3494271,75.0991083 106,88 L30.7329741,80.5618496 C30.7329741,80.5618496 25.686035,45.1818892 30.1188554,25.7714172 C35.8835956,0.529013276 24,0 24,0 L97.1806174,3.2523928 Z" id="Fill-1" fill="#D0C5BA"/><path d="M81.7559471,113.999155 L1.15576529,111.056145 C0.512068232,111.034403 0,110.5219 0,109.897578 L0,106.160965 C0,105.502477 0.566646037,104.975996 1.24565814,105.000845 L81.8458399,107.943855 C82.489537,107.965597 83,108.4781 83,109.102422 L83,112.840588 C83,113.497523 82.4349592,114.024004 81.7559471,113.999155" id="Fill-13" fill="#EABD91"/><path d="M51.46408,210 C51.3311581,210 51.1949541,209.988837 51.0587502,209.966511 C49.7180441,209.752816 48.8105649,208.520085 49.0337424,207.217186 L53.3315507,181.959759 L56.0786034,109.305188 C56.1278337,107.984746 57.3027977,106.943384 58.6270937,107.002389 C59.985851,107.050231 61.0475852,108.161762 60.9983549,109.480609 L58.2119179,182.591275 L53.8894945,207.998606 C53.6892911,209.169143 52.647249,210 51.46408,210" id="Fill-14" fill="#EABD91"/><path d="M68.9911072,215 C68.2306165,215 67.502282,214.574169 67.1630356,213.851833 L53.9485058,185.707545 L33.6258806,212.687894 C32.9666815,213.561637 31.7077721,213.747741 30.8154416,213.102685 C29.9231111,212.454476 29.7333904,211.221142 30.3941973,210.344246 L54.7556227,178 L70.8159632,212.205286 C71.2790103,213.192583 70.8384724,214.364408 69.8287724,214.820205 C69.5586615,214.941645 69.2724727,215 68.9911072,215" id="Fill-15" fill="#EABD91"/><polygon id="Fill-16" fill="#FFF6ED" points="21.7901465 9 4 105.124118 79.1248253 109 97 11.5812543"/><polygon id="Fill-17" fill="#9C9B9A" points="96.9712141 13 22 10.7098912 22.0287859 10 97 12.2901088"/><path d="M98,3.29534131 C98,3.29534131 91.6792369,7.59790732 96.5980382,13 L21.9964834,10.3880169 C21.9964834,10.3880169 18.3555202,4.48716991 24.992958,0 L98,3.29534131 Z" id="Fill-18" fill="#FFF6ED"/><path d="M72.3994973,88 C72.3866779,88 72.3738586,88 72.3626417,87.9983964 L17.563189,84.6324455 C17.3933328,84.6244275 17.2330911,84.5394369 17.1273316,84.4031311 C17.0215721,84.2684289 16.9783068,84.0920332 17.0103551,83.9236555 L27.2978716,28.4921051 C27.3587634,28.1649713 27.6632226,27.9516928 27.9981277,28.0094223 C28.3250208,28.070359 28.5397447,28.3846641 28.4804552,28.7101944 L18.3163249,83.4746482 L72.4363529,86.7989056 C72.7664507,86.8197523 73.0196326,87.1035891 72.9988012,87.4355337 C72.9795722,87.7546496 72.7151734,88 72.3994973,88" id="Fill-19" fill="#9C9B9A"/><path d="M40.2853618,78 C40.2380826,78 40.1891732,77.9953323 40.1418941,77.982885 C39.856589,77.9175368 39.6609512,77.6685912 39.6739937,77.3885275 L41.6271108,37.3394135 L25.2098412,69.030181 C25.0924585,69.2573438 24.8283475,69.3833724 24.5707578,69.3491424 C24.3082771,69.3118006 24.1012271,69.1173119 24.0588389,68.8668104 L22.007903,56.8614117 C21.9541026,56.5424502 22.1807163,56.2437156 22.5133005,56.1908146 C22.857297,56.1441374 23.1605355,56.357297 23.2143359,56.6731466 L24.9587727,66.8830257 L41.8260092,34.3240606 C41.9548041,34.076671 42.2466304,33.9537541 42.5270446,34.0159905 C42.8074587,34.0860064 42.9982055,34.3333961 42.985163,34.6087921 L41.0450884,74.4058487 L53.6930704,47.7857908 C53.7974105,47.5664075 54.022394,47.4123725 54.2881353,47.4450466 C54.5408341,47.4606057 54.7592962,47.6239762 54.8342907,47.8542508 L61.507169,68.4171526 L75.8881756,48.6555443 C76.0789224,48.3894837 76.4587857,48.3225796 76.7375696,48.5092888 C77.0147231,48.6928861 77.0831963,49.0554131 76.8908191,49.3199177 L61.7941044,70.0648609 C61.6620489,70.2484582 61.4484777,70.355816 61.1990395,70.3091387 C60.9691652,70.2749087 60.7784183,70.1193177 60.7083148,69.9061581 L54.1414069,49.6668855 L40.8429294,77.6576999 C40.7402196,77.8693036 40.5217574,78 40.2853618,78" id="Fill-20" fill="#9C9B9A"/></g></g><g transform="translate(-42.000000, 8.000000) scale(1 1)" id="Master/Female Character/Sitting"><g id="Master/Female Character/Sitting" stroke="none" stroke-width="1" fill="none" fill-rule="evenodd"><g id="Female Sitting Lower" transform="translate(68.000000, 108.000000) scale(1 1)"><g id="Female Sitting Lower/Jeans 4" stroke="none" stroke-width="1" fill="none" fill-rule="evenodd"><g id="Group-22" transform="translate(41.000000, 31.000000)"><path d="M17.4204,4.46 C17.4204,4.46 22.6834,0.858 28.3614,1.136 C34.0394,1.413 38.3514,3.213 39.9354,11.939 C39.9354,11.939 52.7364,14.293 65.4774,26.203 C78.2194,38.113 78.7734,38.529 77.1114,48.224 C75.4494,57.918 70.6024,69.69 70.6024,69.69 L68.9244,87.912 C68.9244,87.912 71.2714,94.376 74.3494,96.453 C77.4274,98.531 79.3784,99.531 77.7874,100.993 C76.1964,102.455 75.8114,100.686 72.7334,100.993 C69.6554,101.301 69.3474,99.686 69.3474,99.686 C69.3474,99.686 72.9644,108.381 79.3514,112.151 C79.3514,112.151 81.5054,114.152 79.3514,115.075 C77.1964,115.999 71.1944,115.922 68.3474,113.998 C65.5004,112.074 59.6514,107.149 57.7284,106.61 C55.8044,106.072 56.7284,103.225 56.7284,103.225 L59.4984,95.53 C59.4984,95.53 58.7284,94.529 56.5744,93.837 C54.4194,93.145 53.2654,90.221 53.4964,89.143 C53.7274,88.065 57.5744,82.603 57.6514,78.601 C57.6514,78.601 55.7274,73.138 53.1114,68.289 C50.4954,63.441 53.8804,51.668 55.8044,48.513 C55.8044,48.513 52.8034,48.975 47.1084,49.437 C41.4144,49.898 22.0744,51.286 10.7324,45.039 C-0.6106,38.791 0.5064,17.609 17.4204,4.46" id="Fill-1" fill="#a15122"/><path d="M32.7451,20.0899 C36.4661,20.9439 40.1421,22.0239 43.7361,23.3339 C47.3261,24.6519 50.8641,26.1429 54.2451,27.9569 C57.6171,29.7779 60.8781,31.8539 63.7831,34.3939 C66.6961,36.9049 69.1901,39.9979 70.7251,43.5769 L70.7511,43.6379 L70.7521,43.7049 C70.7791,48.0359 70.7631,52.3659 70.7391,56.6969 C70.7391,61.0279 70.6511,65.3599 70.6021,69.6909 C70.4901,65.3609 70.3391,61.0309 70.2761,56.6999 C70.1901,52.3709 70.1111,48.0409 70.0761,43.7099 L70.1021,43.8379 C68.6021,40.3899 66.1381,37.4249 63.2961,34.9469 C60.4681,32.4349 57.2621,30.3579 53.9351,28.5289 C50.5941,26.7209 47.1381,25.1109 43.5851,23.7329 C40.0351,22.3569 36.4341,21.0779 32.7451,20.0899" id="Fill-3" fill="#782001"/><path d="M57.6514,78.6007 C58.2754,79.9107 58.7564,81.2817 59.1784,82.6687 C59.5924,84.0607 59.9184,85.4797 60.1474,86.9177 C60.3324,88.3597 60.4854,89.8167 60.3994,91.2777 C60.3124,92.7317 60.0654,94.1917 59.4984,95.5307 C59.8674,94.1267 60.0074,92.6977 60.0144,91.2677 C60.0204,89.8367 59.8734,88.4077 59.6534,86.9927 C59.4684,85.5697 59.1404,84.1687 58.8094,82.7697 C58.4674,81.3717 58.0814,79.9827 57.6514,78.6007" id="Fill-5" fill="#000"/><path d="M68.9248,87.9122 C68.7988,89.8972 68.6908,91.8642 68.7098,93.8312 C68.7288,95.7982 68.8698,97.7522 69.3478,99.6852 C68.9168,98.7852 68.6538,97.8082 68.4708,96.8242 C68.2928,95.8372 68.2308,94.8352 68.2098,93.8362 C68.2068,92.8362 68.2568,91.8382 68.3788,90.8482 C68.4988,89.8582 68.6578,88.8732 68.9248,87.9122" id="Fill-7" fill="#000"/><path d="M55.4765,48.5606 C55.5435,47.9956 55.8055,47.5016 56.1185,47.0596 C56.4475,46.6276 56.8485,46.2376 57.3655,46.0056 C57.2495,46.2676 57.1025,46.4876 56.9635,46.7116 C56.8265,46.9376 56.6705,47.1446 56.5205,47.3566 C56.2035,47.7706 55.8885,48.1756 55.4765,48.5606" id="Fill-9" fill="#782001"/><path d="M27.9585,8.10929635e-06 C27.9585,8.10929635e-06 19.2085,1.5821 16.1645,4.2741 C13.1195,6.9671 -5.2795,19.2761 1.4815,35.6481 C8.2435,52.0201 34.6665,51.4651 53.4795,48.8141 C53.4795,48.8141 49.4705,64.8061 49.1115,73.7681 C48.7535,82.7301 47.3195,90.2591 47.3195,90.2591 C47.3195,90.2591 63.9475,91.9321 71.0995,90.7361 L71.0995,80.5791 C71.0995,80.5791 74.8035,80.8181 75.1625,79.9811 C75.1625,79.9811 78.8665,43.5351 78.1495,40.5481 C77.4325,37.5601 60.3935,15.8321 39.9355,11.9381 L38.5415,5.9051 C38.5415,5.9051 38.2575,-0.0269 27.9585,8.10929635e-06" id="Fill-11" fill="#C1EDFB"/><path d="M32.7451,20.0899 C36.4811,20.8889 40.1591,21.9759 43.7631,23.2649 C47.3571,24.5769 50.9121,26.0409 54.2981,27.8609 C57.6821,29.6739 60.9471,31.7579 63.8701,34.2949 C66.7791,36.8269 69.3151,39.9149 70.8291,43.5339 L70.8631,43.6129 L70.8641,43.6989 C70.9731,49.8449 71.0241,55.9909 71.0651,62.1379 C71.1241,68.2839 71.1241,74.4319 71.0991,80.5789 C70.8461,74.4369 70.6181,68.2929 70.4481,62.1499 C70.2611,56.0059 70.0831,49.8609 69.9641,43.7159 L69.9981,43.8809 C68.5321,40.4399 66.0351,37.5189 63.2211,35.0339 C60.3991,32.5339 57.2081,30.4469 53.8861,28.6239 C50.5531,26.8119 47.1051,25.1899 43.5621,23.7959 C40.0201,22.4009 36.4201,21.1319 32.7451,20.0899" id="Fill-13" fill="#AADBEB"/><g id="Group-17" transform="translate(55.000000, 96.245000)" fill="#131313"><path d="M3.6221,0.3732 C3.6221,0.3732 4.0421,0.3112 4.0801,0.4472 C4.1161,0.5772 3.8321,1.1352 3.8321,1.1352 C4.4161,3.2762 6.0261,9.3492 6.2001,11.7752 C6.2321,12.2242 6.4691,12.6252 6.8421,12.8752 L13.2731,17.1772 C13.8481,17.5612 14.6201,17.4062 15.0021,16.8302 C16.0401,15.2672 18.1781,12.5512 20.4181,12.7092 C20.4181,12.7092 28.8121,17.3112 28.8121,17.8962 C28.8121,18.4802 23.5261,21.6202 13.9021,18.9182 C13.9021,18.9182 6.1781,13.4422 3.6221,11.8362 C1.0661,10.2292 -0.6859,9.4992 0.5561,6.5792 C1.7971,3.6582 3.6221,0.3732 3.6221,0.3732" id="Fill-15"/></g><path d="M69.25,99.4083 L69.689,100.4393 C69.689,100.4393 74.212,103.2083 80.459,100.6383 C80.459,100.6383 81.138,100.2333 80.595,99.9903 C80.052,99.7463 74.514,96.0983 74.065,96.2453 C73.617,96.3923 71.428,99.7183 69.25,99.4083" id="Fill-18" fill="#131313"/><path d="M51.7832,90.6397 C51.7832,90.6397 51.1932,92.0277 52.2642,92.4417 C53.3352,92.8567 59.3792,95.8617 59.3792,95.8617 L59.4982,95.5307 C59.1212,94.5827 58.0602,92.4567 57.7922,91.0087 L51.7832,90.6397 Z" id="Fill-20" fill="#131313"/></g></g></g><g id="Female Top" transform="translate(82.000000, 93.000000) scale(1 1)"><g id="Female Top/Sleeveless 1" stroke="none" stroke-width="1" fill="none" fill-rule="evenodd"><g id="Group-50" transform="translate(30.000000, 0.000000)"><path d="M42.7858,28.3971 C42.7858,28.3971 45.6818,35.5821 46.6368,43.3241 C46.6368,43.3241 54.0028,42.0901 57.8658,39.9591 C57.8658,39.9591 59.4278,37.0971 60.9988,36.5921 C62.5698,36.0871 67.7868,34.7441 67.7868,35.6121 C67.7868,36.4801 66.4968,37.2101 66.4968,37.2101 C66.4968,37.2101 67.5628,37.5451 69.2458,37.2651 C70.9288,36.9851 72.9488,37.9071 72.9488,37.9071 C72.9488,37.9071 74.2388,38.1591 74.9118,38.5821 C75.5848,39.0041 75.3608,40.0141 72.6678,39.9021 C72.6678,39.9021 73.4528,40.2391 73.1728,40.7441 C72.8918,41.2491 70.2558,41.1921 68.5158,42.0901 C66.7768,42.9881 61.7838,42.2581 61.7838,42.2581 C61.7838,42.2581 52.0778,50.5051 46.5798,52.4691 C41.0818,54.4321 39.3428,50.0561 38.0528,43.1001 C36.7628,36.1431 35.5688,25.5871 42.7858,28.3971" id="Fill-1" fill="#a15122"/><path d="M61.0851,36.9362 C61.4091,36.5842 61.9131,36.4582 62.3811,36.4252 C62.8571,36.3902 63.3351,36.4982 63.7871,36.5732 C64.6931,36.7572 65.6001,36.9352 66.4971,37.2082 C65.5701,37.1402 64.6521,36.9752 63.7351,36.8172 C63.2771,36.7192 62.8411,36.6242 62.3861,36.6172 C61.9421,36.6192 61.4651,36.6612 61.0851,36.9362" id="Fill-3" fill="#000"/><path d="M68.2223,38.5817 C69.0553,38.2277 69.9473,38.0407 70.8423,37.9157 C71.2933,37.8717 71.7463,37.8437 72.1993,37.8557 C72.6533,37.8717 73.1043,37.9357 73.5413,38.0487 C71.7423,37.9597 69.9943,38.2637 68.2223,38.5817" id="Fill-5" fill="#000"/><path d="M61.4122,39.3259 C62.2612,38.8609 63.2292,38.6089 64.2172,38.5699 C64.7112,38.5429 65.2132,38.6029 65.7002,38.7149 C66.1692,38.8289 66.6362,38.9659 67.0972,39.1029 C67.5582,39.2529 67.9892,39.3879 68.4432,39.4289 C68.8982,39.4799 69.3792,39.4709 69.8492,39.4719 C70.3212,39.4719 70.7942,39.4139 71.2922,39.4199 C71.7932,39.4339 72.2842,39.6129 72.6682,39.9019 C71.7702,39.4319 70.8462,39.7599 69.8732,39.8569 C69.3852,39.9119 68.9032,39.9259 68.4022,39.8999 C67.8952,39.8709 67.4012,39.7189 66.9492,39.5809 C66.0272,39.2999 65.1412,38.9819 64.2152,38.9529 C63.2852,38.9129 62.3342,39.0549 61.4122,39.3259" id="Fill-7" fill="#000"/><g id="Group-11" transform="translate(0.000000, 0.190200)" fill="#a15122"><path d="M37.4069,58.0575 C35.2089,57.7985 33.4539,57.7255 33.1819,57.8375 C32.9109,57.9515 32.0739,57.9785 31.2849,57.8945 C30.4959,57.8095 27.8199,59.6135 25.8189,60.3665 C23.8189,61.1205 23.7659,60.7335 23.7659,60.7335 C18.6269,58.0755 10.5169,53.6405 10.5169,53.6405 L9.7869,37.1075 L13.6439,44.6975 L14.0459,49.9575 C18.9229,54.6825 35.5369,51.5785 35.5369,51.5785 L36.8609,44.6135 C36.8609,44.6135 44.6389,32.0265 42.5309,27.3875 C40.4229,22.7485 32.6219,15.7915 27.1759,11.7555 C27.1759,11.7555 28.4519,3.6785 25.3109,1.5275 C22.1699,-0.6255 20.9979,2.7515 20.9979,2.7515 C20.9979,2.7515 20.6499,9.6795 17.8179,11.6835 C14.9859,13.6885 2.1099,19.7775 0.4729,29.3905 C-1.1641,39.0025 1.8859,57.5995 3.0169,58.3695 C4.1479,59.1385 21.1619,67.0885 26.2129,65.8735 C31.2639,64.6595 33.1819,63.1245 33.1819,63.1245 L33.8989,62.7005 C34.7709,62.1835 35.8309,62.0865 36.7819,62.4425 C37.3769,62.6635 37.8609,62.6995 37.9979,62.7505 C38.2499,62.8455 40.1919,63.4595 41.2959,62.7365 C41.5739,62.5545 41.2409,61.9575 40.7189,61.9345 C40.4539,61.9225 41.1579,61.8535 41.2759,61.5335 C41.3609,61.2995 40.8019,61.0585 40.4109,60.8325 C40.1709,60.6935 40.6679,60.5805 40.8839,60.3665 C40.8839,60.3665 40.3289,59.0045 37.4069,58.0575" id="Fill-9"/></g><path d="M33.4137,59.3288 C34.7877,59.7558 36.1347,60.2308 37.4767,60.7148 L39.5047,61.4358 C39.8427,61.5628 40.1787,61.6938 40.5137,61.8468 C40.6807,61.9248 40.8477,62.0028 41.0147,62.1018 C41.0987,62.1528 41.1827,62.2058 41.2677,62.2768 C41.3457,62.3598 41.4657,62.4158 41.5047,62.6688 C41.4767,62.9598 41.3537,62.9988 41.2717,63.0878 C41.1807,63.1648 41.0857,63.2168 40.9907,63.2608 C40.7997,63.3458 40.6057,63.4008 40.4137,63.4278 C40.0287,63.4888 39.6497,63.4758 39.2797,63.4358 C38.5417,63.3508 37.8297,63.1418 37.1617,62.8868 C35.8837,62.4038 34.3187,62.3908 33.1827,63.3148 C33.6617,62.7698 34.3717,62.4618 35.0927,62.3298 C35.8247,62.2208 36.5767,62.3118 37.2817,62.5208 C37.9687,62.7198 38.6367,62.9268 39.3267,62.9828 C39.6677,63.0148 40.0107,63.0168 40.3317,62.9568 C40.4947,62.9328 40.6457,62.8818 40.7807,62.8188 C40.8467,62.7868 40.9087,62.7488 40.9537,62.7098 C41.0037,62.6878 41.0247,62.5868 41.0057,62.6938 C41.0477,62.7688 40.8897,62.5768 40.7617,62.5188 C40.6227,62.4328 40.4667,62.3538 40.3117,62.2778 C39.9977,62.1268 39.6697,61.9908 39.3407,61.8588 C38.6837,61.5898 38.0027,61.3768 37.3467,61.0748 C36.0237,60.5138 34.7057,59.9448 33.4137,59.3288" id="Fill-12" fill="#000"/><path d="M32.6251,58.3551 C33.4621,58.0241 34.4061,58.1511 35.2651,58.3441 C36.1431,58.5431 36.9561,58.9051 37.7581,59.2711 C38.5531,59.6581 39.3281,60.0901 40.0581,60.5801 C40.4331,60.8261 40.7661,61.0651 41.1691,61.2801 C41.2681,61.3501 41.3831,61.4561 41.3981,61.6201 C41.4111,61.7881 41.2901,61.8951 41.1961,61.9581 C40.9911,62.0871 40.7631,62.1151 40.5441,62.1251 C40.7531,62.0641 40.9661,61.9851 41.1151,61.8521 C41.2841,61.7051 41.2231,61.5661 41.0421,61.4901 C40.6501,61.3371 40.2421,61.1071 39.8621,60.9111 C39.0901,60.5011 38.3271,60.0911 37.5431,59.7221 C36.7601,59.3511 35.9711,58.9871 35.1611,58.7121 C34.3501,58.4551 33.4951,58.2311 32.6251,58.3551" id="Fill-14" fill="#000"/><path d="M5.1251,21.1032 C5.1251,21.1032 4.9701,20.3662 5.8961,19.5122 C6.8211,18.6582 8.4581,17.1642 10.9491,18.3742 C13.4401,19.5832 19.6331,19.1542 24.6151,19.5112 C29.5981,19.8682 35.4711,19.4032 36.3881,19.1892 C36.3881,19.1892 38.0271,20.6022 37.7371,21.1762 C37.4471,21.7512 36.7871,23.4982 37.5691,24.7072 C38.3521,25.9172 44.6811,34.3142 37.8871,44.2102 C37.8871,44.2102 37.3501,48.4812 37.8871,50.1182 C38.4231,51.7552 35.7191,54.6672 24.4731,53.8162 C16.6951,53.2282 13.2751,51.0032 11.9061,49.6882 C11.3811,49.1842 11.1491,48.4572 11.2781,47.7422 C11.5191,46.4092 11.8671,44.0402 11.5191,43.0722 C11.0211,41.6862 10.0951,40.5142 10.5931,36.4182 C11.0921,32.3242 12.1591,29.4772 11.5191,26.9152 C10.8781,24.3522 8.2701,18.7902 5.1251,21.1032" id="Fill-16" fill="#FFE9DF"/><polygon id="Fill-18" fill="#3F3E3E" points="7.9723 19.4303 7.9723 20.7233 9.0253 20.7233 10.1333 20.3533 9.0523 18.8763"/><polygon id="Fill-20" fill="#3F3E3E" points="13.0411 22.2926 14.6101 20.9996 16.0881 22.9386 14.2411 23.7696"/><polygon id="Fill-22" fill="#3F3E3E" points="23.8434 22.7077 24.6284 23.4167 26.3204 22.7077 25.0814 20.9997"/><polygon id="Fill-24" fill="#3F3E3E" points="33.9064 23.4167 32.6604 24.6467 33.9064 26.1237 35.1534 24.7707"/><polygon id="Fill-26" fill="#3F3E3E" points="37.9493 29.6208 37.0793 30.9248 37.8873 32.1718 39.3533 31.4788"/><polygon id="Fill-28" fill="#3F3E3E" points="32.6603 32.5866 31.4603 33.2326 31.8293 35.0796 33.9063 34.8026"/><polygon id="Fill-30" fill="#3F3E3E" points="26.3204 30.3249 24.1604 30.8959 23.8434 29.2169 25.0814 28.7089"/><polygon id="Fill-32" fill="#3F3E3E" points="18.7194 32.5866 17.7034 30.8966 16.0884 30.8966 16.0884 32.1716"/><polygon id="Fill-34" fill="#3F3E3E" points="16.088 37.9069 17.934 40.2039 15.295 40.4359 14.565 39.1719 14.841 37.9069"/><polygon id="Fill-36" fill="#3F3E3E" points="15.295 46.0202 13.787 46.7582 13.91 48.3722 15.013 48.9122 16.25 48.0632"/><polygon id="Fill-38" fill="#3F3E3E" points="21.9503 50.3591 23.2603 49.2051 24.6743 50.7771 22.5173 51.7441"/><polygon id="Fill-40" fill="#3F3E3E" points="27.9401 46.4352 28.2961 48.0562 30.1681 47.4652 29.4701 45.7062"/><polygon id="Fill-42" fill="#3F3E3E" points="34.0787 40.7575 35.1527 42.7425 34.4137 43.2965 32.9587 43.1115 32.6327 42.0275"/><polygon id="Fill-44" fill="#3F3E3E" points="35.8605 48.0563 34.0785 49.8683 35.1525 50.9473 36.7685 49.5013 36.7685 48.9113"/><polygon id="Fill-46" fill="#3F3E3E" points="39.0309 35.944 38.2169 36.465 37.8769 37.907 38.4539 38.865 39.3539 38.221 39.9999 37.907"/><polygon id="Fill-48" fill="#3F3E3E" points="22.7184 40.7575 24.1604 39.9845 25.5254 41.6865 24.4124 42.6465 23.3124 42.6465"/></g></g></g><g id="Female Head" transform="translate(111.000000, 63.000000) scale(1 1)"><g id="Female Head/Short Wavy 2" stroke="none" stroke-width="1" fill="none" fill-rule="evenodd"><g id="Group-21" transform="translate(14.350000, 1.700000)"><g id="Group-3" transform="translate(2.000000, 8.489300)" fill="#a15122"><path d="M4.0624,21.9146 C4.0624,21.9146 5.1964,24.1826 7.6764,25.6706 C10.1564,27.1586 13.2744,29.4266 14.8334,28.9306 C16.3924,28.4346 20.5244,25.2686 21.5164,21.7266 C22.5084,18.1826 23.1244,12.2766 22.4874,9.3716 C21.8494,6.4656 18.2354,0.3716 11.7874,0.3716 C5.3374,0.3716 -0.4026,7.1736 1.1564,14.6856 C1.1564,14.6856 -0.6356,16.8836 0.8984,19.1506 C2.4324,21.4186 4.0624,21.9146 4.0624,21.9146" id="Fill-1"/></g><path d="M9.9101,25.6559 C9.9101,25.6559 12.7571,25.7269 13.5131,26.2759 C13.5131,26.2759 13.7901,26.3739 13.6831,26.0099 C13.6831,26.0099 14.0911,26.3019 14.1171,26.1429 C14.1441,25.9839 13.9401,24.4419 12.3371,24.2299 C10.7331,24.0169 9.5291,25.4879 9.9101,25.6559" id="Fill-4" fill="#000"/><path d="M22.3828,25.2487 C22.3828,25.2487 20.5758,25.2217 19.8448,25.7697 C19.8448,25.7697 19.5758,25.8677 19.6788,25.5047 C19.6788,25.5047 19.2838,25.7967 19.2588,25.6377 C19.2338,25.4777 19.9678,24.0257 21.5208,23.8127 C23.0718,23.6017 23.4808,24.9587 22.3828,25.2487" id="Fill-6" fill="#000"/><path d="M17.6523,30.5993 C17.6523,30.5993 17.4393,30.7763 17.6523,30.9533 C17.8643,31.1303 19.2643,30.6343 19.5833,30.1733 C19.9023,29.7123 19.7133,29.6603 19.2573,29.9253 C18.8033,30.1913 17.6523,30.5993 17.6523,30.5993" id="Fill-8" fill="#000"/><path d="M14.7822,32.0338 C14.7822,32.0338 14.6932,31.8748 15.4552,31.8748 C16.2172,31.8748 16.1462,32.0158 17.3862,32.0338 C18.6262,32.0518 19.1342,32.0338 18.6492,32.3528 C18.1662,32.6718 18.2012,32.6538 18.1122,32.9018 C18.0242,33.1498 16.9022,33.5938 16.0192,33.2918 C15.1362,32.9908 14.2342,32.1908 14.7822,32.0338" id="Fill-10" fill="#EE4E2F"/><path d="M9.4609,21.4752 C9.5969,21.4332 9.4139,21.7102 10.0279,21.6052 C10.6429,21.4982 12.3189,21.3092 13.8309,22.2542 C13.8309,22.2542 14.1019,22.0412 14.1199,21.6402 C14.1369,21.2642 11.5909,19.9772 9.4249,21.4042 C9.2769,21.5012 9.3229,21.5172 9.4609,21.4752" id="Fill-12" fill="#000"/><path d="M22.3828,21.6168 C22.3828,21.6168 21.4848,20.6478 19.9728,21.0968 C18.4608,21.5458 18.6018,22.2308 18.6498,22.4198 C18.6968,22.6088 19.7838,21.6868 20.9178,21.6988 C22.0518,21.7108 22.3828,21.9468 22.3828,21.6168" id="Fill-14" fill="#20180F"/><path d="M22.5742,21.6168 C22.5742,21.6168 21.6772,20.6478 20.1652,21.0968 C18.6532,21.5458 18.7942,22.2308 18.8422,22.4198 C18.8892,22.6088 19.9752,21.6868 21.1092,21.6988 C22.2442,21.7108 22.5742,21.9468 22.5742,21.6168" id="Fill-16" fill="#000"/><g id="Group-20" transform="translate(0.000000, 0.489300)" fill="#ee4e2f"><path d="M5.2704,23.3014 C5.2704,23.3014 4.5334,22.6574 3.1564,22.6864 C3.1564,22.6864 2.7294,23.2694 2.5764,23.7194 C2.5764,23.7194 0.5454,17.0694 0.1724,16.3234 C-0.2006,15.5774 0.0614,14.4224 0.6574,13.1174 C1.2534,11.8134 1.5864,9.4274 2.2774,9.2794 C2.9684,9.1294 3.4534,8.3464 4.1994,8.1974 C4.9444,8.0484 5.2604,7.6754 5.2704,7.2284 C5.2804,6.7804 5.5034,7.0784 5.5034,6.2594 C5.5034,5.4394 5.7644,3.0534 7.0324,1.5254 C7.0324,1.5254 10.2374,0.4064 10.8714,0.5184 C10.8714,0.5184 11.8024,2.0464 12.8464,1.6374 C13.8904,1.2274 14.0774,0.7044 14.9714,0.7044 C15.8664,0.7044 16.4624,0.6304 17.0214,0.8544 C17.5814,1.0774 17.7604,0.9284 17.9504,1.7114 C18.1394,2.4934 19.8174,3.5744 22.0164,3.2774 C22.0164,3.2774 22.0904,4.0224 22.7994,3.8734 C22.7994,3.8734 23.6344,4.4724 23.3674,3.3374 C23.3674,3.3374 24.4694,4.2824 24.4854,4.6454 C24.5004,5.0074 24.3164,5.9524 24.7474,6.1734 C25.1784,6.3934 27.9664,7.7894 29.0784,7.9674 C29.0784,7.9674 29.2774,8.2784 28.7664,8.6554 C28.2554,9.0334 27.7454,9.4784 27.9664,9.7884 C28.1894,10.1004 29.3664,10.3224 29.7664,9.6334 C29.7664,9.6334 29.8324,9.8114 29.8994,10.1444 C29.8994,10.1444 30.5884,10.0114 30.6554,10.4334 C30.7214,10.8554 30.4994,12.0864 31.1664,12.1144 C31.8324,12.1444 32.5874,11.7214 32.6104,12.2774 C32.6324,12.8324 31.8994,12.8764 31.8544,13.3214 C31.8104,13.7654 30.2544,14.3654 29.7444,15.0094 C29.2334,15.6544 29.2334,16.5874 29.7444,16.6974 C30.2544,16.8094 30.3434,16.8094 30.3884,17.3644 C30.4324,17.9204 31.3884,18.5204 31.3884,18.5204 C31.3884,18.5204 32.7214,17.8754 33.2764,18.2534 C33.8324,18.6314 34.0764,19.2974 34.3424,19.4314 C34.6094,19.5644 34.3424,20.1424 33.8324,19.9864 C33.3214,19.8304 32.8324,19.5414 32.8994,20.5864 C32.8994,20.5864 31.8544,21.2084 31.8544,21.4754 C31.8544,21.7414 34.0644,21.0084 34.4484,22.2524 C34.4484,22.2524 33.3654,22.6744 33.1214,22.8524 C32.8764,23.0304 31.6764,22.6404 31.2994,23.3014 C30.9214,23.9634 31.5214,23.9184 30.6104,24.4294 C30.6104,24.4294 31.6324,24.9624 31.6324,25.6964 C31.6324,26.4294 31.7214,26.6734 31.7654,26.9624 C31.8104,27.2514 31.7654,27.4064 31.2104,27.4064 C30.6554,27.4064 28.2104,27.3404 27.2334,27.6734 C26.2554,28.0064 25.4124,28.1404 25.2344,28.4504 C25.0564,28.7624 23.5164,29.7264 23.5164,29.7264 C23.5164,29.7264 23.9904,26.8074 23.9904,25.6964 C23.9904,24.5854 24.3894,21.6974 24.3894,21.6974 C24.3894,21.6974 23.5674,21.3024 23.6124,20.4884 C23.6564,19.6754 24.3674,19.3634 24.3674,19.3634 C24.3674,19.3634 23.5004,19.3424 23.3454,18.5644 C23.1904,17.7864 23.3234,17.3204 22.8344,17.0094 C22.3454,16.6974 22.5744,16.0984 22.5744,16.0984 L20.2124,14.8994 C20.2124,14.8994 19.8874,15.6984 20.6944,15.8544 C21.5014,16.0094 21.8344,16.1794 21.8344,16.7944 C21.8344,17.4084 22.0024,18.0754 22.5744,18.1874 C23.1454,18.2974 22.5234,18.4754 22.0354,18.3424 C21.5454,18.2084 21.1354,17.8754 21.1294,17.3644 C21.1244,16.8544 21.3014,16.6014 20.3904,16.7944 C19.4794,16.9874 19.1464,16.7864 18.9914,16.4094 C18.8354,16.0314 18.9914,16.0984 18.2804,15.9654 C17.5694,15.8314 17.6134,15.3434 17.7024,14.9434 C17.7914,14.5434 17.2364,13.8764 15.7914,13.9214 C15.7914,13.9214 16.1244,14.2774 15.7914,14.8544 C15.4584,15.4324 16.3474,15.0094 16.8134,15.6984 C17.2804,16.3874 18.6554,16.4534 18.6234,16.6974 C18.5904,16.9434 15.9924,17.2534 15.5024,16.3874 C15.0144,15.5214 15.0694,15.9874 14.1204,15.8544 C13.1694,15.7204 13.5214,14.6544 13.5124,14.4324 C13.5034,14.2094 13.1484,14.5434 12.5924,14.4544 C12.0374,14.3654 11.5924,14.1884 11.6154,13.1884 C11.6154,13.1884 10.6814,13.2104 10.4824,12.7874 C10.2824,12.3654 10.1704,13.0104 10.2374,13.4094 C10.3044,13.8104 10.7924,14.4054 9.1934,15.1174 C9.1934,15.1174 8.7714,17.0984 9.1934,18.0754 C9.6154,19.0534 9.4164,19.5864 8.7714,19.9864 C8.1264,20.3864 7.8604,20.7484 8.2384,21.0114 C8.6164,21.2754 9.6734,21.7414 9.3334,22.4304 C8.9934,23.1184 8.5044,22.8404 8.2384,23.3014 C7.9714,23.7634 7.7054,23.0744 8.0384,22.6864 C8.3714,22.2964 8.9934,22.1444 8.3934,21.7654 C7.7934,21.3864 7.2834,21.8144 7.2834,21.2224 C7.2834,20.6304 8.3044,19.5414 8.7264,19.2534 C9.1494,18.9644 8.0604,18.2764 8.0604,18.2764 C8.0604,18.2764 7.5274,18.3864 7.3044,18.1424 C7.3044,18.1424 7.2834,20.3044 6.7714,21.0114 C6.7714,21.0114 7.9824,22.8524 6.5274,23.5634 C6.5274,23.5634 8.0274,24.1554 7.9384,24.7594 C7.8494,25.3634 6.8274,25.3454 7.1384,25.7984 C7.4494,26.2514 7.9384,26.9404 7.6264,27.3844 C7.3164,27.8284 6.9604,26.8284 6.9604,26.8284 C6.9604,26.8284 6.2494,26.3224 6.2494,25.7984 C6.2494,25.2744 7.3604,24.8964 7.1164,24.5854 C6.8724,24.2744 5.6944,24.2314 5.5824,23.7194 C5.4724,23.2074 5.2704,23.3014 5.2704,23.3014" id="Fill-18"/></g></g><path d="M18.5637315,27.6622672 C18.5637315,27.6622672 18.3907315,27.4622672 18.3967315,27.7822672 C18.4037315,28.1022672 18.3237315,28.2762672 18.2307315,28.2492672 C18.1367315,28.2232672 17.6967315,27.4552672 18.3567315,27.0952672 C19.0177315,26.7352672 19.3777315,27.4492672 19.8517315,28.3362672 C20.3247315,29.2232672 20.1447315,30.4832672 19.6847315,30.5302672 C19.2247315,30.5772672 19.3577315,30.2572672 19.4037315,29.6172672 C19.4507315,28.9762672 18.8037315,27.7952672 18.5637315,27.6622672" id="Fill-28" fill="#000"/></g></g><g id="Female Accesories" transform="translate(123.000000, 72.000000) scale(1 1)"><g id="Female Accesories/Glasses 1" stroke="none" stroke-width="1" fill="none" fill-rule="evenodd"><g id="Accesories" transform="translate(8.000000, 15.000000)" fill="#1E2214"><path d="M10.0980239,0.625 L5.09802389,0.625 C4.33863236,0.625 3.72302389,1.24060847 3.72302389,2 L3.72302389,5 C3.72302389,5.75939153 4.33863236,6.375 5.09802389,6.375 L10.0980239,6.375 C10.8574154,6.375 11.4730239,5.75939153 11.4730239,5 L11.4730239,2 C11.4730239,1.24060847 10.8574154,0.625 10.0980239,0.625 Z M5.09802389,1.375 L10.0980239,1.375 C10.4432019,1.375 10.7230239,1.65482203 10.7230239,2 L10.7230239,5 C10.7230239,5.34517797 10.4432019,5.625 10.0980239,5.625 L5.09802389,5.625 C4.75284592,5.625 4.47302389,5.34517797 4.47302389,5 L4.47302389,2 C4.47302389,1.65482203 4.75284592,1.375 5.09802389,1.375 Z" id="Rectangle" fill-rule="nonzero"/><path d="M18.0980239,0.625 L14.0980239,0.625 C13.3386324,0.625 12.7230239,1.24060847 12.7230239,2 L12.7230239,5 C12.7230239,5.75939153 13.3386324,6.375 14.0980239,6.375 L18.0980239,6.375 C18.8574154,6.375 19.4730239,5.75939153 19.4730239,5 L19.4730239,2 C19.4730239,1.24060847 18.8574154,0.625 18.0980239,0.625 Z M14.0980239,1.375 L18.0980239,1.375 C18.4432019,1.375 18.7230239,1.65482203 18.7230239,2 L18.7230239,5 C18.7230239,5.34517797 18.4432019,5.625 18.0980239,5.625 L14.0980239,5.625 C13.7528459,5.625 13.4730239,5.34517797 13.4730239,5 L13.4730239,2 C13.4730239,1.65482203 13.7528459,1.375 14.0980239,1.375 Z" id="Rectangle-Copy" fill-rule="nonzero"/><path d="M11.0822585,2.98873658 C12.019965,2.61457941 12.6866317,2.61457941 13.0822585,2.98873658 C13.0241884,2.33708781 12.9951533,2.01126342 12.9951533,2.01126342 L11.0822585,2.01126342 L11.0822585,2.98873658 Z" id="Path-2"/><polygon id="Path-3" points="4.23948432 2.5 -9.89060421e-15 2.28173765 -9.89060421e-15 1.71349515 4.39934039 1.16932173"/></g></g></g></g></g><g id="Laptop" transform="translate(118.000000, 158.500000) scale(-1, 1) translate(-118.000000, -158.500000) translate(91.000000, 146.000000)"><path d="M52.6379637,23.5331079 L13.7678274,23.9998414 C12.7956449,24.0117823 12,23.3477644 12,22.5243613 L12,22.5046329 L54,22 L54,22.3639379 C54,23.0030357 53.3931522,23.5242821 52.6379637,23.5331079" id="Fill-24" fill="#807A74"/><path d="M37.8285734,24.3581161 L8.58821309,24.9994898 C7.60619681,25.0206203 6.72751848,24.383597 6.42789956,23.4327232 L0.107163375,3.33572582 C-0.347156735,1.89387797 0.699063601,0.417226899 2.18859764,0.396096371 L30.6903056,0 C31.6350224,-0.0128415108 32.4849617,0.584406672 32.805982,1.48742604 L39.865982,21.3395579 C40.3820603,22.7888636 39.345012,24.3245558 37.8285734,24.3581161" id="Fill-21" fill="#BFBAB4"/></g></g></svg>